<svg width="80" height="80" viewBox="0 0 80 80" fill="none" xmlns="http://www.w3.org/2000/svg">
<rect width="80" height="80" rx="40" fill="#809671"/>
<path d="M39.9972 8.00337C22.3334 8.00337 8 22.3424 8 40.0017C8 57.663 22.3334 72 39.9972 72C51.0429 72 60.7898 66.3917 66.544 57.8709L66.5413 57.8737C66.5905 57.8162 66.6316 57.7533 66.6644 57.685C66.6671 57.6823 66.6671 57.6823 66.6698 57.6795C70.0364 52.6126 72 46.5367 72 40.0014C72 33.9118 70.2935 28.216 67.3344 23.3677C67.3289 23.354 67.3262 23.343 67.3207 23.3321C67.3098 23.3184 67.2988 23.3048 67.2879 23.2911C61.6569 14.1223 51.5354 8 39.9975 8L39.9972 8.00337ZM39.9972 10.0023C50.4471 10.0023 59.6388 15.3317 65.0101 23.4229L61.5916 25.2249C60.6399 25.728 59.5651 25.9577 58.4903 25.8812L55.4629 25.6597C54.5413 25.594 53.7044 25.1155 53.1766 24.3581L52.4218 23.2752C51.5193 21.9818 49.9933 21.2572 48.4208 21.3775V21.3748L44.5811 21.6729C43.0496 21.7904 41.6303 22.5315 40.6594 23.7237L39.6639 24.9514C38.6876 26.1491 38.28 27.7105 38.548 29.2336L39.1606 32.7254C39.4341 34.2786 40.5089 35.5747 41.9802 36.1353L49.9601 39.176C51.0759 39.5998 52.2819 39.7174 53.4579 39.5151L54.4917 39.3373C55.0797 39.2362 55.6786 39.4549 56.056 39.9198L57.098 41.2132C57.645 41.8858 58.0278 42.6706 58.222 43.5156L60.172 51.9815L60.1747 51.9843C60.2103 52.1401 60.2841 52.2851 60.388 52.4054L64.5176 57.3055C59.0862 64.9895 50.1324 70.0016 39.9976 70.0016C23.4161 70.0016 9.99427 56.581 9.99427 40.0025C9.99427 38.4849 10.1064 36.9974 10.3252 35.5427L15.6581 38.8896C16.8259 39.6224 18.3492 39.5103 19.3938 38.608L19.8806 38.1951C20.9171 37.3009 21.2999 35.8544 20.8487 34.5637L19.4376 30.5468C19.3364 30.2543 19.5059 30.0082 19.815 30.0082H21.4832C22.9272 30.0082 24.3438 29.6472 25.61 28.9527L34.8837 23.8612C35.8874 23.3116 36.6285 22.3846 36.9457 21.2854L38.067 17.3779C38.6413 15.3817 37.1016 13.3419 35.0259 13.3419H34.2793C33.6092 13.3419 32.9584 13.1231 32.4251 12.7157L30.7678 11.4524C33.6749 10.5145 36.7789 10.0059 40.0009 10.0059L39.9972 10.0023ZM28.5413 12.2664L31.205 14.3063C32.0856 14.979 33.1659 15.3399 34.2762 15.3399H35.0228C35.8213 15.3399 36.3656 16.0563 36.1441 16.8247L35.0228 20.7295C34.8532 21.3174 34.4512 21.8151 33.9152 22.1104L24.6499 27.1964C23.6791 27.7296 22.5879 28.0086 21.4803 28.0086H19.8121C18.1849 28.0086 17.0062 29.6766 17.5449 31.2106L18.956 35.2275C19.1393 35.747 18.9889 36.3158 18.5704 36.674L18.0836 37.0951C17.698 37.4287 17.1484 37.4697 16.7163 37.199L10.7134 33.4309C12.8575 23.8198 19.6125 15.9523 28.5389 12.2667L28.5413 12.2664ZM48.7381 23.363C49.5476 23.3548 50.3161 23.7485 50.7838 24.4185L51.5385 25.5013C52.411 26.751 53.8057 27.5385 55.3263 27.6506L58.351 27.8721C59.7977 27.976 61.2444 27.6725 62.5298 26.9943L66.0659 25.124C68.571 29.5072 70.0013 34.5853 70.0013 39.9992C70.0013 45.695 68.4179 51.0217 65.6639 55.5556L62.0704 51.3009L60.1725 43.0617C59.9127 41.9242 59.3903 40.8633 58.6519 39.9527L57.6099 38.6675C56.7813 37.6449 55.4604 37.1472 54.1613 37.3687L53.1193 37.5464C52.2961 37.6859 51.4484 37.5984 50.6689 37.303L42.6891 34.2706C41.8713 33.9589 41.2807 33.2424 41.1302 32.3811L40.5176 28.8892C40.3508 27.9376 40.6024 26.9669 41.2122 26.2177L42.2077 24.9927C42.8313 24.227 43.7474 23.7458 44.7347 23.6692L48.5744 23.3739C48.6291 23.3712 48.6838 23.3657 48.7358 23.3657L48.7381 23.363ZM27.4176 37.0434C26.8433 37.0352 26.2635 37.2211 25.7877 37.6231L23.7338 39.343C22.5825 40.311 21.6882 41.5442 21.1193 42.936L20.8076 43.6907C20.184 45.222 20.6845 46.9939 22.0191 47.9728L25.6208 50.6143L27.6063 59.4736C27.7922 60.2994 28.1478 61.076 28.6482 61.7596L31.1752 65.2077C31.7331 65.9706 32.5618 66.4901 33.4916 66.6624L33.869 66.7362C34.9793 66.9413 36.0815 66.2085 36.3194 65.1038L37.066 61.6557C37.1754 61.1443 37.4215 60.6768 37.7798 60.2994L43.5092 54.2317L43.5119 54.2344C43.6706 54.0676 43.769 53.8489 43.7854 53.6164L44.1327 48.2952C44.223 46.9034 43.8401 45.5143 43.047 44.3686L41.7671 42.5283C40.9385 41.3279 39.5711 40.6087 38.1134 40.6087H31.9792C31.1369 40.6087 30.3821 40.1138 30.0512 39.34L29.7121 38.5579C29.3866 37.795 28.7276 37.2946 27.9864 37.1196C27.8005 37.0758 27.609 37.0512 27.4176 37.0485L27.4176 37.0434ZM27.4121 39.0149C27.6036 39.0121 27.7841 39.1297 27.8743 39.343L28.2134 40.1251C28.8561 41.629 30.3439 42.6025 31.9793 42.6025H38.1134C38.9174 42.6025 39.664 42.999 40.1208 43.658L41.3979 45.5037C41.9367 46.2803 42.191 47.21 42.1309 48.1534L41.8136 53.1191L36.3276 58.9216C35.7178 59.5669 35.2966 60.3654 35.1079 61.2322L34.3613 64.6803C34.3476 64.7487 34.3039 64.7761 34.2355 64.7624L33.8526 64.6968C33.4233 64.6175 33.0404 64.3768 32.7833 64.0241L30.2645 60.576C29.9254 60.1138 29.6902 59.5833 29.5644 59.0256L27.4887 49.805L27.4915 49.8132C27.4368 49.5808 27.3 49.3729 27.1059 49.2308L23.2006 46.365C22.5989 45.9221 22.3801 45.14 22.6618 44.4482L22.9736 43.6935C23.4194 42.6025 24.1222 41.6318 25.0247 40.8743L27.0704 39.1544C27.177 39.0642 27.2974 39.0204 27.4122 39.0177L27.4121 39.0149Z" fill="#E5D2B8"/>
</svg>
