<svg width="80" height="80" viewBox="0 0 80 80" fill="none" xmlns="http://www.w3.org/2000/svg">
<rect width="80" height="80" rx="40" fill="#809671"/>
<path d="M45.3066 43.1572C44.6802 43.1572 44.0538 43.1097 43.4353 43.0106C43.0131 42.9432 42.7257 42.5467 42.7931 42.1245C42.8604 41.7022 43.2569 41.4148 43.6791 41.4802C46.9976 42.0115 50.6848 40.8756 52.8552 38.6574C52.8691 38.6435 52.883 38.6297 52.8969 38.6178C55.7316 36.1121 59.0738 27.5168 60.1481 24.6146C56.8317 24.458 46.3018 24.3292 42.5434 28.7002C42.5355 28.7121 42.5236 28.722 42.5157 28.7319C39.8832 31.4754 38.4956 34.8195 38.892 37.4523C39.1042 38.8557 39.8178 39.9301 40.9536 40.5585C41.3283 40.7647 41.4651 41.2365 41.2569 41.6111C41.0508 41.9838 40.579 42.1206 40.2043 41.9125C38.6304 41.0422 37.6471 39.5793 37.3617 37.6822C36.8859 34.5383 38.3885 30.7958 41.3858 27.6713C46.3772 21.8989 60.6874 23.0803 61.2924 23.1358C61.5302 23.1556 61.7463 23.2845 61.8751 23.4847C62.006 23.6849 62.0357 23.9347 61.9564 24.1607C61.782 24.6622 57.6469 36.4511 53.9399 39.7593C51.8446 41.8923 48.5458 43.1572 45.3066 43.1572Z" fill="#E5D2B8"/>
<path d="M33.8728 63.9894H33.8252H33.8272C33.623 63.9775 33.4308 63.8843 33.294 63.7297C33.1572 63.577 33.0878 63.3748 33.0997 63.1706C34.2098 44.5647 42.3453 37.3251 46.7141 33.4359C47.2811 32.9324 47.7687 32.4963 48.181 32.0959L48.183 32.0939C48.4883 31.7945 48.9779 31.8005 49.2772 32.1058C49.5765 32.411 49.5706 32.9026 49.2653 33.202C48.8272 33.6302 48.3257 34.0762 47.7449 34.5896C43.5424 38.3283 35.7183 45.2942 34.6461 63.2577C34.6242 63.668 34.2851 63.9894 33.8728 63.9894Z" fill="#E5D2B8"/>
<path d="M27.7673 47.5124C27.1172 47.5105 26.4669 47.451 25.8267 47.3321C23.7353 46.9475 21.7848 45.9623 20.4744 44.6302C17.4831 41.962 14.1807 32.53 14.0417 32.1296C13.9644 31.9037 13.9961 31.6559 14.1249 31.4557C14.2557 31.2574 14.4698 31.1286 14.7077 31.1088C15.1953 31.0652 26.6769 30.1176 30.7128 34.7761C33.1531 37.3253 34.4237 40.5166 34.0312 43.1138C33.8013 44.6422 32.9846 45.8653 31.7357 46.5551C30.6038 47.1874 29.2382 47.5124 27.7673 47.5124ZM15.8555 32.5877C16.7792 35.0656 19.3463 41.5674 21.5168 43.4902L21.5584 43.5299C23.8976 45.9225 28.2982 46.7055 30.9746 45.2069C32.0272 44.6241 32.382 43.6211 32.493 42.8856C32.8122 40.7804 31.6664 38.0131 29.5751 35.8364C29.5652 35.8245 29.5552 35.8165 29.5473 35.8046C26.669 32.4486 18.6917 32.4668 15.8555 32.5877Z" fill="#E5D2B8"/>
<path d="M35.1176 54.932C34.7707 54.932 34.4674 54.7021 34.3722 54.369C32.1599 46.519 28.106 42.9032 25.424 40.5146C24.9561 40.0983 24.5538 39.7395 24.1989 39.3926H24.2009C23.8936 39.0933 23.8896 38.6036 24.189 38.2984C24.4883 37.9931 24.9779 37.9872 25.2832 38.2865C25.6122 38.6076 26.0008 38.9565 26.4527 39.3589C29.0971 41.7179 33.5259 45.6627 35.8608 53.9487H35.8627C35.9282 54.1807 35.8806 54.4304 35.7339 54.6247C35.5872 54.817 35.3594 54.932 35.1176 54.932Z" fill="#E5D2B8"/>
<path d="M48.2865 59.0593C48.0446 59.0613 47.8048 59.0454 47.5669 59.0157C46.0187 58.9067 44.421 58.1336 43.067 56.8351C41.7785 55.5982 40.8627 54.0163 40.5555 52.4899H40.5535C40.2958 51.3442 40.607 50.1468 41.386 49.2706C42.6825 47.7661 45.2436 46.9672 48.245 47.1277C53.3593 47.1515 58.9298 54.8387 59.1658 55.1661C59.3046 55.3584 59.3482 55.6061 59.2788 55.8361C59.2114 56.064 59.0429 56.2504 58.8189 56.3356C58.5176 56.4546 51.8489 59.0593 48.2865 59.0593ZM47.4936 48.6521C45.2972 48.6521 43.4437 49.2547 42.5615 50.2776H42.5596C42.0977 50.793 41.9153 51.5027 42.0719 52.1766C42.5992 54.7932 45.2793 57.3127 47.6957 57.4695L47.7512 57.4755C49.8327 57.7649 54.6894 56.2068 57.2881 55.2553C55.7578 53.3384 51.6801 48.6719 48.2232 48.6699H48.1796C47.9476 48.6599 47.7137 48.652 47.4917 48.652L47.4936 48.6521Z" fill="#E5D2B8"/>
<path d="M35.1176 54.9321C34.7549 54.9341 34.4397 54.6803 34.3604 54.3255C34.2811 53.9707 34.4615 53.6079 34.7925 53.4553C41.7743 50.2142 46.815 51.7148 48.7124 52.2778C48.8631 52.3214 48.99 52.3611 49.101 52.3888V52.3908C49.5133 52.5018 49.7571 52.928 49.6441 53.3403C49.5331 53.7526 49.1089 53.9965 48.6966 53.8854C48.5776 53.8537 48.4349 53.8101 48.2724 53.7625C46.5279 53.2432 41.8934 51.8655 35.445 54.8608C35.3419 54.9083 35.2306 54.9321 35.1176 54.9321Z" fill="#E5D2B8"/>
<circle cx="40" cy="40" r="31" stroke="#E5D2B8" stroke-width="2"/>
</svg>
