<svg width="80" height="80" viewBox="0 0 80 80" fill="none" xmlns="http://www.w3.org/2000/svg">
<rect width="80" height="80" rx="40" fill="#809671"/>
<path d="M40 8C22.3495 8 8 22.3495 8 40C8 57.6505 22.3495 72 40 72C57.6505 72 72 57.6505 72 40C72 22.3495 57.6505 8 40 8ZM10.2232 40C10.2232 32.1853 13.2547 25.1116 18.1726 19.7895L25 26.5L26.7958 25.2463L19.7895 18.1726C25.1116 13.2547 32.1853 10.2232 40 10.2232C56.4379 10.2232 69.7768 23.5621 69.7768 40C69.7768 47.8147 66.7453 54.8884 61.8274 60.2105L56.0337 54.4168C55.899 54.5516 55.5 55 55.5 55L54.5 56L60.2779 61.8274C54.9558 66.7453 47.8821 69.7768 40.0674 69.7768C23.5621 69.7768 10.2232 56.4379 10.2232 40Z" fill="#E5D2B8"/>
<path d="M21.5658 35.4492C21.4029 35.7663 21.0142 35.8911 20.6971 35.7282C20.3801 35.5654 20.2553 35.1766 20.4181 34.8596L20.4692 34.7603C20.6321 34.4433 21.0208 34.3184 21.3378 34.4813C21.6548 34.6442 21.7797 35.0329 21.6168 35.3499L21.5658 35.4492ZM45.3472 40.1353L45.7122 47.5956L52.3591 51.0106L52.1945 47.6522L51.994 43.5501L45.3477 40.1368L45.3472 40.1353ZM53.6993 52.0294C53.7112 52.1491 53.6897 52.2743 53.631 52.3884C53.5724 52.5025 53.4832 52.5929 53.3789 52.6529L45.8758 57.4894C45.6752 57.6174 45.4312 57.6216 45.2331 57.5211L37.2637 53.4277C37.0397 53.3126 36.912 53.0854 36.914 52.85L36.4772 43.9355C36.466 43.6974 36.5842 43.4829 36.7726 43.3607L44.2901 38.5143L44.3019 38.5069L44.319 38.4944L44.3281 38.4897L44.3297 38.4892L44.3388 38.4845L44.3415 38.4819L44.3564 38.4735L44.3596 38.4725L44.3687 38.4678L44.3703 38.4673L44.3778 38.4631L44.3837 38.4595L44.3885 38.4579L44.3976 38.4533L44.484 38.4255L44.4941 38.424L44.4989 38.4225L44.5255 38.4175L44.5303 38.4159L44.5356 38.416L44.5457 38.4145L44.5473 38.414L44.5558 38.413L44.5627 38.4126L44.5665 38.4131L44.5766 38.4117L44.5798 38.4106L44.5968 38.4087L44.5984 38.4082L44.6409 38.4086L44.6478 38.4082L44.6515 38.4088L44.6621 38.4089L44.6637 38.4084L44.6728 38.409L44.6839 38.4107L44.6945 38.4108L44.7057 38.4125L44.7147 38.4132L44.7258 38.4149L44.7312 38.4149L44.737 38.4166L44.7481 38.4183L44.7577 38.4205L44.763 38.4206L44.7672 38.4228L44.7767 38.425L44.7783 38.4245L44.7879 38.4267L44.7937 38.4284L44.7974 38.429L44.807 38.4312L44.8086 38.4307L44.8181 38.4329L44.8239 38.4346L44.8276 38.4351L44.8377 38.439L44.8398 38.44L44.8557 38.4455L44.8594 38.4461L44.8695 38.4499L44.8716 38.451L44.8874 38.4565L44.8896 38.4576L44.8996 38.4614L44.9081 38.4658L44.916 38.4685L44.9181 38.4696L44.9282 38.4734L44.9451 38.4821L52.9144 42.5755C53.1385 42.6906 53.2662 42.9179 53.2641 43.1532L53.6992 52.0348L53.6993 52.0294ZM51.7696 52.1587L45.1227 48.7437L38.8447 52.7896L45.4916 56.2046L51.7696 52.1587ZM44.4271 47.661L44.061 40.1975L37.7819 44.2455L38.148 51.7091L44.4287 47.6605L44.4271 47.661ZM43.1929 20.8967L47.2414 27.1774L54.705 26.8113L50.6564 20.5306L43.1929 20.8967ZM54.767 28.0974L47.3072 28.4641L43.8917 35.1093L51.3515 34.7427L52.1344 33.2188C52.2972 32.9018 52.686 32.7769 53.003 32.9398C53.32 33.1027 53.4449 33.4914 53.282 33.8084L52.3297 35.662C52.2146 35.886 51.9874 36.0137 51.752 36.0117L42.8375 36.4485C42.5994 36.4597 42.3849 36.3415 42.2627 36.1531L37.4085 28.6223C37.2805 28.4216 37.2762 28.1777 37.3767 27.9795L41.4701 20.0102C41.5179 19.9172 41.5879 19.8383 41.6687 19.7823C41.7132 19.7504 41.7613 19.7243 41.813 19.7042C41.8477 19.6913 41.8813 19.6805 41.918 19.674L41.9196 19.6735C41.9612 19.6654 42.0053 19.6601 42.0478 19.6605L50.9623 19.2237C51.2005 19.2125 51.4149 19.3307 51.5372 19.519L56.3841 27.0382L56.3914 27.05L56.404 27.0671L56.4087 27.0762L56.4092 27.0778L56.4139 27.0869L56.4165 27.0896L56.4249 27.1046L56.4259 27.1078L56.4306 27.1168L56.4311 27.1184L56.4352 27.1259L56.4389 27.1318L56.4404 27.1366L56.4451 27.1457L56.4729 27.2321L56.4744 27.2422L56.4759 27.247L56.4809 27.2736L56.4825 27.2784L56.4824 27.2837L56.4839 27.2938L56.4844 27.2954L56.4854 27.3039L56.4858 27.3109L56.4852 27.3146L56.4867 27.3247L56.4878 27.3279L56.4897 27.3449L56.4902 27.3465L56.4897 27.389L56.4902 27.3959L56.4896 27.3996L56.4895 27.4103L56.49 27.4119L56.4894 27.4209L56.4877 27.432L56.4876 27.4426L56.4858 27.4538L56.4852 27.4628L56.4835 27.474L56.4834 27.4793L56.4818 27.4851L56.4801 27.4962L56.4778 27.5058L56.4778 27.5111L56.4756 27.5153L56.4734 27.5249L56.4739 27.5265L56.4717 27.536L56.47 27.5418L56.4694 27.5455L56.4672 27.5551L56.4677 27.5567L56.4655 27.5662L56.4638 27.572L56.4633 27.5758L56.4594 27.5858L56.4583 27.5879L56.4529 27.6038L56.4523 27.6075L56.4485 27.6176L56.4474 27.6197L56.4419 27.6356L56.4408 27.6377L56.437 27.6477L56.4326 27.6562L56.4299 27.6641L56.4288 27.6662L56.425 27.6763L56.4163 27.6932L54.5176 31.3913C54.3547 31.7083 53.966 31.8332 53.649 31.6703C53.332 31.5074 53.2071 31.1187 53.37 30.8017L54.7599 28.0964L54.767 28.0974ZM46.158 27.8749L42.1116 21.5953L38.6977 28.2401L42.7441 34.5197L46.158 27.8749ZM20.0404 38.4239L27.5007 38.0589L30.9157 31.412L23.4543 31.7792L22.8614 32.9331C22.6986 33.2501 22.3098 33.375 21.9928 33.2121C21.6758 33.0492 21.5509 32.6605 21.7138 32.3435L22.4772 30.8577C22.5923 30.6337 22.8195 30.506 23.0548 30.508L31.9365 30.0729C32.0561 30.061 32.1813 30.0825 32.2954 30.1412C32.4096 30.1998 32.5 30.289 32.5599 30.3933L37.3964 37.8964C37.5244 38.097 37.5286 38.341 37.4282 38.5391L33.3347 46.5085C33.2196 46.7325 32.9924 46.8602 32.7571 46.8582L23.8426 47.295C23.6044 47.3062 23.39 47.188 23.2677 46.9996L18.4213 39.4821L18.414 39.4703L18.4014 39.4532L18.3967 39.4441L18.3962 39.4425L18.3915 39.4334L18.3889 39.4307L18.3806 39.4158L18.3796 39.4126L18.3749 39.4035L18.3744 39.4019L18.3702 39.3944L18.3665 39.3885L18.365 39.3837L18.3603 39.3746L18.3326 39.2882L18.3311 39.2781L18.3295 39.2733L18.3245 39.2467L18.323 39.2419L18.323 39.2366L18.3215 39.2265L18.321 39.2249L18.3201 39.2164L18.3196 39.2095L18.3202 39.2057L18.3187 39.1956L18.3177 39.1924L18.3157 39.1754L18.3152 39.1738L18.3157 39.1313L18.3152 39.1244L18.3158 39.1207L18.3159 39.1101L18.3154 39.1085L18.316 39.0994L18.3177 39.0883L18.3179 39.0777L18.3196 39.0665L18.3202 39.0575L18.3219 39.0464L18.322 39.041L18.3236 39.0352L18.3254 39.0241L18.3276 39.0145L18.3276 39.0092L18.3298 39.005L18.332 38.9955L18.3315 38.9939L18.3338 38.9843L18.3354 38.9785L18.336 38.9748L18.3382 38.9652L18.3377 38.9636L18.3399 38.9541L18.3416 38.9483L18.3422 38.9446L18.346 38.9345L18.3471 38.9324L18.3526 38.9165L18.3531 38.9128L18.357 38.9027L18.3581 38.9006L18.3635 38.8848L18.3646 38.8826L18.3685 38.8726L18.3728 38.8641L18.3756 38.8562L18.3766 38.8541L18.3805 38.844L18.3892 38.8271L19.1835 37.2784C19.3464 36.9614 19.7351 36.8365 20.0521 36.9994C20.3692 37.1623 20.494 37.551 20.3311 37.8681L20.0456 38.4239L20.0404 38.4239ZM32.0637 32.0014L28.6487 38.6483L32.6962 44.9257L36.1096 38.2794L32.0637 32.0014ZM27.566 39.3439L20.1025 39.71L24.1511 45.9907L31.6146 45.6246L27.566 39.3439Z" fill="#E5D2B8"/>
</svg>
