<svg width="80" height="80" viewBox="0 0 80 80" fill="none" xmlns="http://www.w3.org/2000/svg">
<rect width="80" height="80" rx="40" fill="#809671"/>
<path d="M42.453 56.4998H20.5375C19.6264 56.4998 18.8087 56.0311 18.3499 55.2446C17.8911 54.458 17.8829 53.5158 18.3286 52.7227L27.6197 36.2049V23.5495C27.6197 23.2119 27.8933 22.9399 28.2293 22.9399H33.7205C34.058 22.9399 34.3301 23.2136 34.3301 23.5495V36.1886L44.601 52.6211C45.0959 53.4143 45.1221 54.3762 44.6682 55.1938C44.216 56.0115 43.3886 56.4998 42.453 56.4998ZM28.8407 24.159V36.3622C28.8407 36.4671 28.8144 36.5703 28.762 36.6621L19.3921 53.3208C19.161 53.7321 19.1643 54.2204 19.4036 54.6284C19.6412 55.0365 20.0656 55.279 20.5375 55.279H42.4529C42.938 55.279 43.3673 55.0266 43.6016 54.6022C43.836 54.1778 43.8229 53.6796 43.5672 53.2683L33.2044 36.6868C33.1437 36.5901 33.111 36.4771 33.111 36.364V24.1591L28.8407 24.159Z" fill="#E5D2B8"/>
<path d="M34.9413 24.1591H27.0086C26.6711 24.1591 26.399 23.8855 26.399 23.5495V21.1096C26.399 20.772 26.6727 20.5 27.0086 20.5H34.9413C35.2789 20.5 35.5509 20.7737 35.5509 21.1096V23.5495C35.5525 23.8871 35.2789 24.1591 34.9413 24.1591ZM27.6198 22.94H34.3318V21.7191H27.6198V22.94Z" fill="#E5D2B8"/>
<path d="M33.7173 26.601H31.2773C30.9397 26.601 30.6677 26.3273 30.6677 25.9914C30.6677 25.6538 30.9414 25.3818 31.2773 25.3818H33.7173C34.0548 25.3818 34.3268 25.6555 34.3268 25.9914C34.3268 26.3273 34.0532 26.601 33.7173 26.601Z" fill="#E5D2B8"/>
<path d="M33.7173 29.0407H31.2773C30.9397 29.0407 30.6677 28.767 30.6677 28.4311C30.6677 28.0935 30.9414 27.8215 31.2773 27.8215H33.7173C34.0548 27.8215 34.3268 28.0952 34.3268 28.4311C34.3268 28.7687 34.0532 29.0407 33.7173 29.0407Z" fill="#E5D2B8"/>
<path d="M33.7173 31.4823H31.2773C30.9397 31.4823 30.6677 31.2087 30.6677 30.8728C30.6677 30.5352 30.9414 30.2632 31.2773 30.2632H33.7173C34.0548 30.2632 34.3268 30.5368 34.3268 30.8728C34.3268 31.2087 34.0532 31.4823 33.7173 31.4823Z" fill="#E5D2B8"/>
<path d="M33.7173 33.9225H31.2773C30.9397 33.9225 30.6677 33.6489 30.6677 33.3129C30.6677 32.9754 30.9414 32.7034 31.2773 32.7034H33.7173C34.0548 32.7034 34.3268 32.977 34.3268 33.3129C34.3268 33.6505 34.0532 33.9225 33.7173 33.9225Z" fill="#E5D2B8"/>
<path d="M33.8272 42.6186C32.8784 42.6186 32.3819 42.0582 32.0198 41.6485C31.6871 41.2716 31.5101 41.0897 31.1283 41.0897C30.7465 41.0897 30.5695 41.27 30.2369 41.6469C29.8747 42.0565 29.3799 42.6169 28.4311 42.6169C27.479 42.6169 26.9825 42.0582 26.6204 41.6501C26.3254 41.3191 26.1435 41.129 25.8273 41.0881C25.5077 41.0471 25.2767 40.7653 25.2963 40.4441C25.3176 40.1213 25.5831 39.8722 25.9059 39.8722H25.937C25.9977 39.8722 26.0567 39.8804 26.114 39.8984C26.817 40.0328 27.2119 40.4785 27.5331 40.839C27.8674 41.2159 28.0444 41.3961 28.4311 41.3961C28.8129 41.3961 28.9898 41.2159 29.3225 40.839C29.6847 40.4293 30.1795 39.8689 31.1283 39.8689C32.0771 39.8689 32.572 40.4293 32.9341 40.839C33.2668 41.2159 33.4454 41.3978 33.8272 41.3978C34.209 41.3978 34.386 41.2159 34.7219 40.8373C35.0578 40.4588 35.4741 39.9885 36.2344 39.8853C36.5687 39.8411 36.8751 40.0737 36.921 40.408C36.9652 40.7423 36.7326 41.0487 36.3983 41.0946C36.1033 41.134 35.9247 41.3208 35.6363 41.6469C35.2725 42.0565 34.7743 42.6186 33.8272 42.6186Z" fill="#E5D2B8"/>
<path d="M25.7846 52.2282C24.7752 52.2282 23.9542 51.4072 23.9542 50.3978C23.9542 49.3883 24.7752 48.5674 25.7846 48.5674C26.7941 48.5674 27.615 49.3883 27.615 50.3978C27.615 51.4072 26.7941 52.2282 25.7846 52.2282ZM25.7846 49.7882C25.4487 49.7882 25.175 50.0619 25.175 50.3978C25.175 50.7337 25.4487 51.0074 25.7846 51.0074C26.1205 51.0074 26.3942 50.7337 26.3942 50.3978C26.3942 50.0619 26.1205 49.7882 25.7846 49.7882Z" fill="#E5D2B8"/>
<path d="M32.4965 54.0582C31.4871 54.0582 30.6661 53.2373 30.6661 52.2279C30.6661 51.2184 31.4871 50.3975 32.4965 50.3975C33.506 50.3975 34.3269 51.2184 34.3269 52.2279C34.3269 53.2373 33.506 54.0582 32.4965 54.0582ZM32.4965 51.6183C32.1606 51.6183 31.887 51.8919 31.887 52.2279C31.887 52.5638 32.1606 52.8374 32.4965 52.8374C32.8325 52.8374 33.1061 52.5638 33.1061 52.2279C33.1061 51.8919 32.8325 51.6183 32.4965 51.6183Z" fill="#E5D2B8"/>
<path d="M36.7687 51.007C35.7594 51.007 34.9384 50.186 34.9384 49.1766C34.9384 48.1671 35.7593 47.3462 36.7687 47.3462C37.7782 47.3462 38.5991 48.1671 38.5991 49.1766C38.5991 50.186 37.7766 51.007 36.7687 51.007ZM36.7687 48.567C36.4328 48.567 36.1592 48.8407 36.1592 49.1766C36.1592 49.5125 36.4328 49.7862 36.7687 49.7862C37.1047 49.7862 37.3783 49.5125 37.3783 49.1766C37.3783 48.8407 37.1047 48.567 36.7687 48.567Z" fill="#E5D2B8"/>
<path d="M30.6662 48.5673C29.6568 48.5673 28.8358 47.7463 28.8358 46.7369C28.8358 45.7275 29.6568 44.9065 30.6662 44.9065C31.6756 44.9065 32.4966 45.7275 32.4966 46.7369C32.4966 47.7463 31.6756 48.5673 30.6662 48.5673ZM30.6662 46.1273C30.3303 46.1273 30.0566 46.401 30.0566 46.7369C30.0566 47.0728 30.3303 47.3465 30.6662 47.3465C31.0021 47.3465 31.2758 47.0728 31.2758 46.7369C31.2758 46.401 31.0021 46.1273 30.6662 46.1273Z" fill="#E5D2B8"/>
<path d="M51.569 56.4998C49.2143 56.4998 47.2969 54.5842 47.2969 52.2277L47.2985 23.5495C47.2985 23.2119 47.5722 22.9399 47.9081 22.9399H55.2296C55.5672 22.9399 55.8392 23.2136 55.8392 23.5495V52.2277C55.8408 54.5824 53.9256 56.4998 51.569 56.4998ZM48.5179 24.159V52.2277C48.5179 53.9106 49.8861 55.2788 51.569 55.2788C53.2519 55.2788 54.6202 53.9106 54.6202 52.2277V24.159H48.5179Z" fill="#E5D2B8"/>
<path d="M56.4508 24.1591H46.6878C46.3503 24.1591 46.0782 23.8855 46.0782 23.5495V21.1096C46.0782 20.772 46.3519 20.5 46.6878 20.5H56.4508C56.7884 20.5 57.0604 20.7737 57.0604 21.1096V23.5495C57.062 23.8871 56.7884 24.1591 56.4508 24.1591ZM47.299 22.94H55.8413V21.7191H47.299V22.94Z" fill="#E5D2B8"/>
<path d="M55.2266 36.9735H47.9051C47.5675 36.9735 47.2955 36.6999 47.2955 36.364C47.2955 36.0264 47.5692 35.7544 47.9051 35.7544H55.2266C55.5642 35.7544 55.8362 36.0281 55.8362 36.364C55.8362 36.6999 55.5625 36.9735 55.2266 36.9735Z" fill="#E5D2B8"/>
<path d="M55.2267 27.2106H52.7867C52.4491 27.2106 52.1771 26.9369 52.1771 26.601C52.1771 26.2635 52.4508 25.9915 52.7867 25.9915H55.2267C55.5642 25.9915 55.8362 26.2651 55.8362 26.601C55.8362 26.9386 55.5626 27.2106 55.2267 27.2106Z" fill="#E5D2B8"/>
<path d="M55.2267 30.2616H52.7867C52.4491 30.2616 52.1771 29.988 52.1771 29.6521C52.1771 29.3145 52.4508 29.0425 52.7867 29.0425H55.2267C55.5642 29.0425 55.8362 29.3161 55.8362 29.6521C55.8362 29.988 55.5626 30.2616 55.2267 30.2616Z" fill="#E5D2B8"/>
<path d="M55.2267 33.3129H52.7867C52.4491 33.3129 52.1771 33.0392 52.1771 32.7033C52.1771 32.3658 52.4508 32.0938 52.7867 32.0938H55.2267C55.5642 32.0938 55.8362 32.3674 55.8362 32.7033C55.8362 33.0392 55.5626 33.3129 55.2267 33.3129Z" fill="#E5D2B8"/>
<path d="M50.3449 47.9576C50.0074 47.9576 49.7354 47.684 49.7354 47.3481V46.7385C49.7354 46.4009 50.009 46.1289 50.3449 46.1289C50.6825 46.1289 50.9545 46.4026 50.9545 46.7385V47.3481C50.9545 47.684 50.6808 47.9576 50.3449 47.9576Z" fill="#E5D2B8"/>
<path d="M52.7847 49.1766C52.4472 49.1766 52.1752 48.903 52.1752 48.567V47.9575C52.1752 47.6199 52.4488 47.3479 52.7847 47.3479C53.1223 47.3479 53.3943 47.6216 53.3943 47.9575V48.567C53.3943 48.9046 53.1223 49.1766 52.7847 49.1766Z" fill="#E5D2B8"/>
<path d="M50.3449 51.618C50.0074 51.618 49.7354 51.3444 49.7354 51.0085V50.3989C49.7354 50.0613 50.009 49.7893 50.3449 49.7893C50.6825 49.7893 50.9545 50.063 50.9545 50.3989V51.0085C50.9545 51.3444 50.6808 51.618 50.3449 51.618Z" fill="#E5D2B8"/>
<path d="M52.7847 53.4488C52.4472 53.4488 52.1752 53.1752 52.1752 52.8393V52.2297C52.1752 51.8921 52.4488 51.6201 52.7847 51.6201C53.1223 51.6201 53.3943 51.8938 53.3943 52.2297V52.8393C53.3943 53.1752 53.1223 53.4488 52.7847 53.4488Z" fill="#E5D2B8"/>
<path d="M40 8C22.3495 8 8 22.3495 8 40C8 57.6505 22.3495 72 40 72C57.6505 72 72 57.6505 72 40C72 22.3495 57.6505 8 40 8ZM10.2232 40C10.2232 32.1853 13.2547 25.1116 18.1726 19.7895L23.5 25.5L25 24L19.7895 18.1726C25.1116 13.2547 32.1853 10.2232 40 10.2232C56.4379 10.2232 69.7768 23.5621 69.7768 40C69.7768 47.8147 66.7453 54.8884 61.8274 60.2105L56.5 55.5L56 56L55 57L60.2779 61.8274C54.9558 66.7453 47.8821 69.7768 40.0674 69.7768C23.5621 69.7768 10.2232 56.4379 10.2232 40Z" fill="#E5D2B8"/>
</svg>
