<svg width="80" height="80" viewBox="0 0 80 80" fill="none" xmlns="http://www.w3.org/2000/svg">
<rect width="80" height="80" rx="40" fill="#809671"/>
<path d="M29.8029 28.3892C29.4881 28.3892 29.1988 28.5609 29.039 28.84C28.6409 29.5365 19.3029 45.915 19.3029 51.5686C19.3029 57.5346 24.0134 62.3892 29.8029 62.3892C35.5923 62.3892 40.3029 57.5348 40.3029 51.5686C40.3029 45.9128 30.9625 29.5295 30.5667 28.84C30.407 28.5585 30.1154 28.3892 29.8029 28.3892ZM29.8029 60.5594C24.9905 60.5594 21.0807 56.528 21.0807 51.5709C21.0807 47.6564 26.8052 36.5355 29.8029 31.1323C32.8006 36.5377 38.5252 47.6565 38.5252 51.5709C38.5252 56.5303 34.6132 60.5594 29.8029 60.5594Z" fill="#E5D2B8"/>
<path d="M26.912 55.8678C25.4799 54.9431 24.5451 53.6066 24.2925 52.1138C24.2118 51.6515 23.7067 51.33 23.1599 51.3983C22.6131 51.4666 22.2329 51.8937 22.3137 52.356C22.6391 54.2957 23.8473 56.0197 25.6986 57.2152C25.8783 57.3341 26.0918 57.3892 26.3053 57.3892C26.6048 57.3892 26.9042 57.2769 27.0995 57.0567C27.4328 56.6846 27.3468 56.154 26.912 55.8722L26.912 55.8678Z" fill="#E5D2B8"/>
<path d="M51.4099 28.4855C51.2327 28.1824 50.909 28 50.5622 28C50.2129 28 49.8919 28.1849 49.7146 28.4855C48.9646 29.7544 42.384 41.0384 42.384 45.1607C42.384 49.6712 46.052 53.3415 50.5648 53.3415C55.0753 53.3415 58.7456 49.6735 58.7456 45.1607C58.7456 41.0381 52.162 29.7539 51.415 28.4855H51.4099ZM50.5622 51.3694C47.1357 51.3694 44.3539 48.5825 44.3539 45.1611C44.3539 42.4974 48.2736 35.0076 50.5622 30.9563C52.8509 34.9993 56.7706 42.4894 56.7706 45.1611C56.7706 48.5876 53.9836 51.3694 50.5622 51.3694Z" fill="#E5D2B8"/>
<path d="M49.8633 47.3907C48.9745 46.7127 48.3966 45.7391 48.2399 44.6423C48.1603 44.1029 47.6619 43.7279 47.1225 43.8075C46.5831 43.8872 46.2081 44.3855 46.2878 44.9249C46.5189 46.5354 47.3666 47.9687 48.6689 48.9627C48.8461 49.1014 49.0567 49.1656 49.2674 49.1656C49.5628 49.1656 49.8581 49.0346 50.0508 48.7778C50.3796 48.3437 50.2948 47.7246 49.8658 47.3958L49.8633 47.3907Z" fill="#E5D2B8"/>
<path d="M45.2574 26.5452C45.2574 23.5194 40.5158 15.4001 39.9764 14.4855C39.7991 14.1824 39.4755 14 39.1287 14C38.7794 14 38.4583 14.1849 38.281 14.4855C37.7416 15.3999 33 23.5191 33 26.5452C33 29.9255 35.7484 32.6739 39.1287 32.6739C42.509 32.6739 45.2574 29.9255 45.2574 26.5452ZM39.1287 30.7012C36.8349 30.7012 34.9727 28.8339 34.9727 26.5452C34.9727 24.927 37.2614 20.3112 39.1287 16.9717C40.9961 20.3109 43.2847 24.9342 43.2847 26.5452C43.2847 28.839 41.4174 30.7012 39.1287 30.7012Z" fill="#E5D2B8"/>
<path d="M38.1708 25.9289C38.0912 25.3895 37.5928 25.0145 37.0535 25.0942C36.514 25.1738 36.139 25.6721 36.2187 26.2115C36.3959 27.4342 37.0406 28.5258 38.027 29.2759C38.2042 29.4146 38.4148 29.4788 38.6255 29.4788C38.9209 29.4788 39.2162 29.3478 39.4089 29.0909C39.7377 28.6568 39.6529 28.0378 39.2188 27.709C38.646 27.2672 38.271 26.6379 38.1657 25.9264L38.1708 25.9289Z" fill="#E5D2B8"/>
<path d="M40 8C22.3495 8 8 22.3495 8 40C8 57.6505 22.3495 72 40 72C57.6505 72 72 57.6505 72 40C72 22.3495 57.6505 8 40 8ZM10.2232 40C10.2232 32.1853 13.2547 25.1116 18.1726 19.7895L25 26.5L26.7958 25.2463L19.7895 18.1726C25.1116 13.2547 32.1853 10.2232 40 10.2232C56.4379 10.2232 69.7768 23.5621 69.7768 40C69.7768 47.8147 66.7453 54.8884 61.8274 60.2105L56.0337 54.4168C55.899 54.5516 55.5 55 55.5 55L54.5 56L60.2779 61.8274C54.9558 66.7453 47.8821 69.7768 40.0674 69.7768C23.5621 69.7768 10.2232 56.4379 10.2232 40Z" fill="#E5D2B8"/>
</svg>
