<svg width="510" height="200" viewBox="0 0 510 200" fill="none" xmlns="http://www.w3.org/2000/svg">
<g clip-path="url(#clip0_497_24761)">
<path fill-rule="evenodd" clip-rule="evenodd" d="M253.115 59.531L255.932 23.5711C254.162 4.81788 277.986 15.1865 283.407 1.68125C278.761 14.0879 293.866 24.3106 289.032 37.3541L261.202 61.6241L288.621 38.1884C300.63 23.6765 310.145 47.8545 323.528 42.1379C311.469 47.625 314.922 65.5351 302.281 71.3396L265.441 68.8221L301.401 71.6396C320.154 69.8692 309.785 93.6937 323.29 99.1144C310.884 94.4676 300.661 109.573 287.618 104.739L263.348 76.9091L286.783 104.329C301.295 116.337 277.117 125.852 282.833 139.235C277.347 127.177 259.436 130.629 253.632 117.988L256.149 81.148L253.332 117.108C255.102 135.861 231.278 125.492 225.857 138.998C230.504 126.591 215.398 116.368 220.233 103.325L248.063 79.0549L220.643 102.491C208.634 117.002 199.12 92.8245 185.736 98.5411C197.795 93.054 194.342 75.144 206.984 69.3394L243.824 71.8569L207.863 69.0394C189.111 70.8098 199.479 46.9853 185.973 41.5646C198.38 46.2114 208.603 31.1056 221.646 35.94L245.916 63.7699L222.481 36.3503C207.969 24.3418 232.147 14.8269 226.43 1.44409C231.917 13.5025 249.828 10.0496 255.632 22.6914L253.115 59.531H253.115Z" stroke="#9D231F" stroke-width="2.88649" stroke-miterlimit="22.9256" stroke-linejoin="round"/>
<path d="M254.431 70.224L262.594 62.0603" stroke="#9D231F" stroke-width="1.33338" stroke-miterlimit="22.9256"/>
<path d="M254.317 70.1547L257.693 59.1143" stroke="#9D231F" stroke-width="1.33338" stroke-miterlimit="22.9256"/>
<path d="M254.184 70.1468L251.982 58.8137" stroke="#9D231F" stroke-width="1.33338" stroke-miterlimit="22.9256"/>
<path d="M254.063 70.2024L246.797 61.23" stroke="#9D231F" stroke-width="1.33338" stroke-miterlimit="22.9256"/>
<path d="M253.982 70.3083L243.355 65.7974" stroke="#9D231F" stroke-width="1.33338" stroke-miterlimit="22.9256"/>
<path d="M253.961 70.4397L242.46 71.4459" stroke="#9D231F" stroke-width="1.33338" stroke-miterlimit="22.9256"/>
<path d="M254.003 70.5662L244.321 76.8536" stroke="#9D231F" stroke-width="1.33338" stroke-miterlimit="22.9256"/>
<path d="M254.1 70.6575L248.503 80.7549" stroke="#9D231F" stroke-width="1.33338" stroke-miterlimit="22.9256"/>
<path d="M254.228 70.6926L254.027 82.2361" stroke="#9D231F" stroke-width="1.33338" stroke-miterlimit="22.9256"/>
<path d="M254.359 70.6633L259.6 80.9501" stroke="#9D231F" stroke-width="1.33338" stroke-miterlimit="22.9256"/>
<path d="M254.46 70.5767L263.917 77.1986" stroke="#9D231F" stroke-width="1.33338" stroke-miterlimit="22.9256"/>
<path d="M254.508 70.4526L265.967 71.8598" stroke="#9D231F" stroke-width="1.33338" stroke-miterlimit="22.9256"/>
<path d="M254.493 70.3204L265.271 66.1829" stroke="#9D231F" stroke-width="1.33338" stroke-miterlimit="22.9256"/>
<path fill-rule="evenodd" clip-rule="evenodd" d="M263.997 61.4494C264.757 62.4224 264.585 63.8271 263.612 64.5873C262.639 65.3474 261.234 65.1747 260.474 64.2017C259.714 63.2292 259.887 61.8244 260.86 61.0643C261.833 60.3042 263.237 60.4769 263.997 61.4494Z" stroke="#9D231F" stroke-width="1.49716" stroke-miterlimit="22.9256"/>
<path fill-rule="evenodd" clip-rule="evenodd" d="M263.997 61.4494C264.757 62.4224 264.585 63.8271 263.612 64.5873C262.639 65.3474 261.234 65.1747 260.474 64.2017C259.714 63.2292 259.887 61.8244 260.86 61.0643C261.833 60.3042 263.237 60.4769 263.997 61.4494Z" fill="#FEFEFE"/>
<path fill-rule="evenodd" clip-rule="evenodd" d="M267.042 66.7848C267.256 68.0002 266.444 69.1597 265.229 69.3742C264.013 69.5886 262.854 68.7766 262.639 67.5612C262.425 66.3454 263.237 65.1863 264.452 64.9719C265.668 64.7574 266.827 65.569 267.042 66.7848Z" stroke="#9D231F" stroke-width="1.49716" stroke-miterlimit="22.9256"/>
<path fill-rule="evenodd" clip-rule="evenodd" d="M267.042 66.7848C267.256 68.0002 266.444 69.1597 265.229 69.3742C264.013 69.5886 262.854 68.7766 262.639 67.5612C262.425 66.3454 263.237 65.1863 264.452 64.9719C265.668 64.7574 266.827 65.569 267.042 66.7848Z" fill="#FEFEFE"/>
<path fill-rule="evenodd" clip-rule="evenodd" d="M267.225 72.9251C266.844 74.0996 265.583 74.7418 264.409 74.3603C263.235 73.9788 262.592 72.7176 262.974 71.5439C263.355 70.3699 264.616 69.7273 265.79 70.1088C266.964 70.4903 267.607 71.7515 267.225 72.9251Z" stroke="#9D231F" stroke-width="1.49716" stroke-miterlimit="22.9256"/>
<path fill-rule="evenodd" clip-rule="evenodd" d="M267.225 72.9251C266.844 74.0996 265.583 74.7418 264.409 74.3603C263.235 73.9788 262.592 72.7176 262.974 71.5439C263.355 70.3699 264.616 69.7273 265.79 70.1088C266.964 70.4903 267.607 71.7515 267.225 72.9251Z" fill="#FEFEFE"/>
<path fill-rule="evenodd" clip-rule="evenodd" d="M264.505 78.4329C263.617 79.2904 262.202 79.266 261.344 78.3778C260.487 77.4899 260.511 76.0747 261.399 75.2172C262.287 74.3598 263.702 74.3841 264.56 75.2724C265.418 76.1602 265.393 77.5751 264.505 78.4329Z" stroke="#9D231F" stroke-width="1.49716" stroke-miterlimit="22.9256"/>
<path fill-rule="evenodd" clip-rule="evenodd" d="M264.505 78.4329C263.617 79.2904 262.202 79.266 261.344 78.3778C260.487 77.4899 260.511 76.0747 261.399 75.2172C262.287 74.3598 263.702 74.3841 264.56 75.2724C265.418 76.1602 265.393 77.5751 264.505 78.4329Z" fill="#FEFEFE"/>
<path fill-rule="evenodd" clip-rule="evenodd" d="M259.517 82.0193C258.33 82.3595 257.092 81.6731 256.752 80.4869C256.411 79.3003 257.098 78.0622 258.284 77.722C259.471 77.3815 260.709 78.0678 261.049 79.2545C261.389 80.4407 260.703 81.6788 259.517 82.0193Z" stroke="#9D231F" stroke-width="1.49716" stroke-miterlimit="22.9256"/>
<path fill-rule="evenodd" clip-rule="evenodd" d="M259.517 82.0193C258.33 82.3595 257.092 81.6731 256.752 80.4869C256.411 79.3003 257.098 78.0622 258.284 77.722C259.471 77.3815 260.709 78.0678 261.049 79.2545C261.389 80.4407 260.703 81.6788 259.517 82.0193Z" fill="#FEFEFE"/>
<path fill-rule="evenodd" clip-rule="evenodd" d="M253.429 82.8434C252.222 82.5868 251.451 81.3997 251.708 80.1924C251.964 78.9847 253.151 78.2141 254.359 78.4707C255.566 78.7273 256.337 79.9143 256.08 81.122C255.823 82.3297 254.637 83.1004 253.429 82.8438L253.429 82.8434Z" stroke="#9D231F" stroke-width="1.49716" stroke-miterlimit="22.9256"/>
<path fill-rule="evenodd" clip-rule="evenodd" d="M253.429 82.8434C252.222 82.5868 251.451 81.3997 251.708 80.1924C251.964 78.9847 253.151 78.2141 254.359 78.4707C255.566 78.7273 256.337 79.9143 256.08 81.122C255.823 82.3297 254.637 83.1004 253.429 82.8438L253.429 82.8434Z" fill="#FEFEFE"/>
<path fill-rule="evenodd" clip-rule="evenodd" d="M247.667 80.7135C246.721 79.9201 246.598 78.5105 247.392 77.5647C248.185 76.6189 249.595 76.4957 250.541 77.289C251.487 78.0824 251.609 79.492 250.816 80.4378C250.023 81.3836 248.613 81.5069 247.667 80.7135Z" stroke="#9D231F" stroke-width="1.49716" stroke-miterlimit="22.9256"/>
<path fill-rule="evenodd" clip-rule="evenodd" d="M247.667 80.7135C246.721 79.9201 246.598 78.5105 247.392 77.5647C248.185 76.6189 249.595 76.4957 250.541 77.289C251.487 78.0824 251.609 79.492 250.816 80.4378C250.023 81.3836 248.613 81.5069 247.667 80.7135Z" fill="#FEFEFE"/>
<path fill-rule="evenodd" clip-rule="evenodd" d="M243.58 76.1274C243.117 74.9829 243.67 73.68 244.815 73.2174C245.96 72.7552 247.263 73.3082 247.725 74.4527C248.187 75.5975 247.634 76.9001 246.49 77.3627C245.345 77.8252 244.043 77.2723 243.58 76.1274Z" stroke="#9D231F" stroke-width="1.49716" stroke-miterlimit="22.9256"/>
<path fill-rule="evenodd" clip-rule="evenodd" d="M243.58 76.1274C243.117 74.9829 243.67 73.68 244.815 73.2174C245.96 72.7552 247.263 73.3082 247.725 74.4527C248.187 75.5975 247.634 76.9001 246.49 77.3627C245.345 77.8252 244.043 77.2723 243.58 76.1274Z" fill="#FEFEFE"/>
<path fill-rule="evenodd" clip-rule="evenodd" d="M242.124 70.1595C242.253 68.932 243.353 68.0413 244.58 68.1698C245.808 68.2991 246.699 69.399 246.57 70.6266C246.441 71.8545 245.341 72.7448 244.113 72.6163C242.886 72.487 241.995 71.3871 242.124 70.1595Z" stroke="#9D231F" stroke-width="1.49716" stroke-miterlimit="22.9256"/>
<path fill-rule="evenodd" clip-rule="evenodd" d="M242.124 70.1595C242.253 68.932 243.353 68.0413 244.58 68.1698C245.808 68.2991 246.699 69.399 246.57 70.6266C246.441 71.8545 245.341 72.7448 244.113 72.6163C242.886 72.487 241.995 71.3871 242.124 70.1595Z" fill="#FEFEFE"/>
<path fill-rule="evenodd" clip-rule="evenodd" d="M243.64 64.2065C244.33 63.1828 245.719 62.9132 246.743 63.6032C247.766 64.2936 248.036 65.6829 247.346 66.7062C246.655 67.7298 245.266 67.9998 244.243 67.3094C243.219 66.6194 242.949 65.2301 243.64 64.2065Z" stroke="#9D231F" stroke-width="1.49716" stroke-miterlimit="22.9256"/>
<path fill-rule="evenodd" clip-rule="evenodd" d="M243.64 64.2065C244.33 63.1828 245.719 62.9132 246.743 63.6032C247.766 64.2936 248.036 65.6829 247.346 66.7062C246.655 67.7298 245.266 67.9998 244.243 67.3094C243.219 66.6194 242.949 65.2301 243.64 64.2065Z" fill="#FEFEFE"/>
<path fill-rule="evenodd" clip-rule="evenodd" d="M247.773 59.6619C248.863 59.0826 250.217 59.4961 250.796 60.5858C251.376 61.676 250.962 63.0292 249.872 63.6089C248.782 64.1883 247.429 63.7743 246.849 62.6846C246.269 61.5945 246.683 60.2412 247.773 59.6619Z" stroke="#9D231F" stroke-width="1.49716" stroke-miterlimit="22.9256"/>
<path fill-rule="evenodd" clip-rule="evenodd" d="M247.773 59.6619C248.863 59.0826 250.217 59.4961 250.796 60.5858C251.376 61.676 250.962 63.0292 249.872 63.6089C248.782 64.1883 247.429 63.7743 246.849 62.6846C246.269 61.5945 246.683 60.2412 247.773 59.6619Z" fill="#FEFEFE"/>
<path fill-rule="evenodd" clip-rule="evenodd" d="M253.556 57.5903C254.79 57.5903 255.791 58.5909 255.791 59.8257C255.791 61.0602 254.79 62.0611 253.556 62.0611C252.321 62.0611 251.32 61.0602 251.32 59.8257C251.32 58.5909 252.321 57.5903 253.556 57.5903Z" stroke="#9D231F" stroke-width="1.49716" stroke-miterlimit="22.9256"/>
<path fill-rule="evenodd" clip-rule="evenodd" d="M253.556 57.5903C254.79 57.5903 255.791 58.5909 255.791 59.8257C255.791 61.0602 254.79 62.0611 253.556 62.0611C252.321 62.0611 251.32 61.0602 251.32 59.8257C251.32 58.5909 252.321 57.5903 253.556 57.5903Z" fill="#FEFEFE"/>
<path fill-rule="evenodd" clip-rule="evenodd" d="M258.804 58.168C259.931 58.6703 260.438 59.9916 259.936 61.119C259.435 62.2468 258.113 62.754 256.986 62.2521C255.858 61.7498 255.351 60.4286 255.852 59.3011C256.355 58.1733 257.676 57.6661 258.804 58.168Z" stroke="#9D231F" stroke-width="1.49716" stroke-miterlimit="22.9256"/>
<path fill-rule="evenodd" clip-rule="evenodd" d="M258.804 58.168C259.931 58.6703 260.438 59.9916 259.936 61.119C259.435 62.2468 258.113 62.754 256.986 62.2521C255.858 61.7498 255.351 60.4286 255.852 59.3011C256.355 58.1733 257.676 57.6661 258.804 58.168Z" fill="#FEFEFE"/>
<path d="M33.6496 180.828C33.8207 180.828 33.9582 180.863 34.0721 180.943C34.175 181.011 34.2663 181.137 34.3348 181.308L39.8175 195.837C39.9772 196.26 39.9772 196.603 39.8175 196.888C39.6691 197.162 39.4632 197.345 39.2009 197.414C38.8579 197.448 38.6183 197.505 38.4699 197.596C38.3102 197.688 38.2417 197.825 38.2417 198.03C38.253 198.259 38.4355 198.396 38.8129 198.453C39.1786 198.51 39.6695 198.556 40.2975 198.579C42.1364 198.624 43.8841 198.659 45.5406 198.67C47.1967 198.693 48.693 198.705 50.0179 198.705C51.3318 198.716 52.4167 198.716 53.2506 198.716C54.0845 198.716 54.7352 198.693 55.1921 198.659C55.649 198.624 55.9688 198.556 56.1517 198.453C56.3227 198.35 56.4144 198.213 56.403 198.031C56.403 197.802 56.3227 197.642 56.163 197.574C56.0033 197.505 55.7864 197.471 55.5119 197.482C55.1009 197.482 54.644 197.46 54.153 197.425C53.6621 197.379 53.148 197.311 52.634 197.208C52.2796 197.117 51.8799 196.957 51.4461 196.729C51.0237 196.5 50.5555 196.123 50.0527 195.609C49.55 195.084 49.0133 194.353 48.4425 193.405C47.8713 192.457 47.2546 191.223 46.6036 189.704C46.0555 188.39 45.4157 186.849 44.6848 185.067C43.9538 183.285 43.1657 181.354 42.3322 179.276C41.4865 177.186 40.6186 175.038 39.7279 172.811C38.8372 170.584 37.9575 168.368 37.0782 166.164C36.1988 163.959 35.3536 161.857 34.5537 159.836C33.7429 157.814 33.0115 155.975 32.3377 154.296C31.6757 152.629 31.1045 151.213 30.6359 150.058C30.1563 148.894 29.825 148.071 29.6082 147.591C29.2765 146.815 28.9798 146.244 28.7288 145.901C28.4661 145.558 28.1917 145.387 27.8945 145.398C27.5633 145.387 27.2665 145.592 26.9925 146.026C26.7071 146.449 26.3759 147.157 25.9757 148.139L8.77436 191.177C8.32882 192.319 7.86058 193.336 7.35787 194.205C6.85558 195.084 6.2499 195.792 5.55341 196.329C4.85652 196.866 3.98814 197.208 2.94909 197.345C2.66368 197.38 2.30977 197.414 1.90963 197.437C1.5099 197.471 1.14422 197.483 0.82436 197.483C0.550306 197.483 0.344765 197.517 0.207738 197.608C0.0711162 197.688 0.00219727 197.825 0.00219727 198.031C0.00219727 198.294 0.10517 198.476 0.322062 198.579C0.527603 198.671 0.859224 198.716 1.30436 198.716C2.20679 198.716 3.08652 198.705 3.96585 198.681C4.84517 198.659 5.65639 198.636 6.39868 198.613C7.15233 198.59 7.79206 198.567 8.30612 198.544C8.83152 198.521 9.19679 198.51 9.39139 198.51C10.111 198.51 10.8877 198.533 11.7326 198.567C12.5779 198.602 13.4231 198.624 14.2684 198.659C15.125 198.693 15.9131 198.716 16.6554 198.716C17.0321 198.716 17.3179 198.67 17.5234 198.579C17.7176 198.476 17.8206 198.294 17.8206 198.031C17.8319 197.825 17.7634 197.688 17.615 197.608C17.4667 197.517 17.1926 197.483 16.7925 197.483H15.7644C14.7249 197.471 13.994 197.277 13.5942 196.889C13.1945 196.5 13.0003 195.986 13.023 195.358C13.023 194.936 13.1146 194.341 13.2857 193.599C13.4568 192.857 13.7081 192.045 14.0511 191.177L17.7517 181.378C17.8206 181.172 17.8887 181.035 17.9803 180.943C18.0719 180.864 18.1972 180.829 18.3683 180.829H33.6513L33.6496 180.828ZM19.7377 177.402C19.6007 177.402 19.5091 177.356 19.475 177.265C19.4292 177.173 19.4292 177.059 19.4633 176.922L25.7681 160.063C25.8026 159.915 25.8598 159.778 25.9279 159.652C25.9968 159.527 26.0763 159.458 26.1792 159.447C26.2822 159.458 26.3507 159.527 26.4079 159.652C26.4537 159.778 26.4877 159.915 26.5222 160.063L32.69 176.991C32.7245 177.094 32.7245 177.196 32.6787 177.276C32.6215 177.356 32.519 177.402 32.3475 177.402H19.7373H19.7377ZM88.2419 185.094C88.3721 185.094 88.4759 185.119 88.5626 185.18C88.6405 185.232 88.7102 185.327 88.7621 185.457L92.922 196.481C93.0436 196.802 93.0436 197.062 92.922 197.279C92.8092 197.487 92.6536 197.625 92.4541 197.678C92.1942 197.703 92.0122 197.747 91.8995 197.816C91.7783 197.886 91.726 197.989 91.726 198.146C91.7345 198.319 91.8736 198.423 92.1594 198.466C92.4363 198.51 92.8092 198.544 93.286 198.562C94.6814 198.596 96.0071 198.622 97.2638 198.631C98.5206 198.649 99.6557 198.657 100.661 198.657C101.658 198.666 102.481 198.666 103.114 198.666C103.747 198.666 104.241 198.648 104.587 198.622C104.934 198.596 105.177 198.544 105.316 198.466C105.446 198.388 105.515 198.285 105.507 198.146C105.507 197.972 105.446 197.851 105.325 197.799C105.203 197.747 105.038 197.721 104.831 197.729C104.519 197.729 104.172 197.712 103.799 197.686C103.427 197.651 103.037 197.599 102.647 197.522C102.378 197.452 102.075 197.331 101.746 197.158C101.425 196.984 101.07 196.698 100.688 196.308C100.307 195.909 99.8994 195.355 99.4664 194.636C99.033 193.916 98.5652 192.98 98.071 191.827C97.6551 190.831 97.1698 189.66 96.6148 188.308C96.0602 186.956 95.4622 185.492 94.8294 183.914C94.188 182.328 93.5296 180.699 92.8534 179.009C92.1772 177.319 91.5103 175.637 90.8426 173.965C90.1753 172.292 89.534 170.697 88.9271 169.163C88.3117 167.629 87.7575 166.234 87.2459 164.959C86.7432 163.695 86.3098 162.619 85.9542 161.744C85.5902 160.86 85.3388 160.236 85.1742 159.872C84.9229 159.283 84.6975 158.849 84.5069 158.589C84.3079 158.329 84.0999 158.199 83.8741 158.208C83.6227 158.199 83.3973 158.355 83.1898 158.685C82.9733 159.006 82.7215 159.542 82.4183 160.288L69.3663 192.945C69.0282 193.812 68.6726 194.583 68.2915 195.242C67.91 195.909 67.4511 196.446 66.9221 196.854C66.3934 197.261 65.7346 197.521 64.9461 197.625C64.7292 197.651 64.4609 197.677 64.1572 197.694C63.8536 197.72 63.5767 197.729 63.3338 197.729C63.1259 197.729 62.9698 197.755 62.866 197.824C62.7622 197.885 62.7099 197.989 62.7099 198.146C62.7099 198.345 62.7882 198.483 62.9527 198.561C63.1084 198.631 63.3598 198.665 63.6979 198.665C64.3822 198.665 65.0499 198.657 65.7172 198.639C66.3841 198.622 66.9995 198.604 67.563 198.587C68.135 198.57 68.6203 198.553 69.0103 198.535C69.4092 198.518 69.6865 198.509 69.8337 198.509C70.3798 198.509 70.9692 198.527 71.6106 198.553C72.2519 198.578 72.8933 198.596 73.5342 198.622C74.1845 198.648 74.7825 198.665 75.3456 198.665C75.6318 198.665 75.8483 198.63 76.0044 198.561C76.1519 198.483 76.2298 198.345 76.2298 198.146C76.2383 197.989 76.1864 197.886 76.0737 197.824C75.961 197.755 75.753 197.729 75.4498 197.729H74.6698C73.8813 197.721 73.3267 197.573 73.0234 197.279C72.7198 196.984 72.5726 196.594 72.59 196.117C72.59 195.797 72.6594 195.346 72.7891 194.783C72.9192 194.219 73.1102 193.604 73.37 192.945L76.1779 185.509C76.2302 185.353 76.2821 185.249 76.3514 185.179C76.4211 185.119 76.516 185.093 76.6461 185.093H88.2423L88.2419 185.094ZM77.6852 182.493C77.5814 182.493 77.5121 182.458 77.4861 182.389C77.4513 182.32 77.4513 182.233 77.4776 182.13L82.2618 169.337C82.2878 169.225 82.3315 169.121 82.383 169.025C82.4353 168.93 82.4957 168.878 82.574 168.869C82.6518 168.878 82.7041 168.93 82.7471 169.025C82.7819 169.121 82.8079 169.225 82.8338 169.337L87.5138 182.182C87.5398 182.26 87.5398 182.338 87.5053 182.398C87.4619 182.459 87.3837 182.494 87.2536 182.494H77.6852V182.493ZM121.345 183.585C121.345 185.189 121.345 186.688 121.336 188.101C121.328 189.505 121.302 190.761 121.267 191.88C121.232 192.998 121.172 193.925 121.085 194.662C121.025 195.165 120.938 195.624 120.834 196.031C120.73 196.43 120.582 196.768 120.383 197.019C120.192 197.279 119.924 197.452 119.577 197.522C119.343 197.574 119.074 197.626 118.762 197.67C118.45 197.704 118.095 197.73 117.705 197.73C117.402 197.73 117.185 197.765 117.055 197.843C116.933 197.912 116.873 198.016 116.873 198.146C116.873 198.328 116.959 198.458 117.142 198.545C117.315 198.623 117.575 198.666 117.913 198.666C118.441 198.666 119.022 198.658 119.646 198.641C120.27 198.623 120.886 198.606 121.492 198.588C122.107 198.571 122.654 198.554 123.139 198.536C123.633 198.519 124.006 198.51 124.257 198.51C124.465 198.51 124.829 198.519 125.358 198.536C125.886 198.554 126.51 198.571 127.238 198.588C127.967 198.606 128.738 198.623 129.544 198.641C130.35 198.658 131.138 198.666 131.901 198.666C132.239 198.666 132.5 198.623 132.673 198.545C132.855 198.459 132.942 198.328 132.942 198.146C132.942 198.016 132.89 197.912 132.785 197.843C132.682 197.765 132.526 197.73 132.318 197.73C132.101 197.73 131.85 197.721 131.555 197.704C131.261 197.679 130.949 197.652 130.636 197.626C130.325 197.591 130.038 197.557 129.77 197.522C129.258 197.453 128.86 197.28 128.583 197.02C128.305 196.768 128.115 196.431 127.993 196.032C127.872 195.624 127.785 195.165 127.742 194.662C127.655 193.925 127.595 192.998 127.56 191.88C127.525 190.762 127.499 189.497 127.49 188.084C127.482 186.671 127.482 185.154 127.482 183.534V182.805C127.482 182.649 127.516 182.546 127.595 182.476C127.664 182.415 127.768 182.389 127.898 182.389L132.422 182.493C132.604 182.485 132.777 182.511 132.933 182.554C133.089 182.606 133.228 182.702 133.358 182.857C133.531 183.057 133.8 183.412 134.155 183.906C134.51 184.4 134.926 184.989 135.403 185.666C135.88 186.342 136.391 187.061 136.92 187.815C137.448 188.569 137.986 189.306 138.506 190.033C139.468 191.368 140.352 192.529 141.149 193.526C141.946 194.523 142.709 195.372 143.437 196.057C144.165 196.742 144.893 197.279 145.63 197.678C146.072 197.921 146.54 198.111 147.025 198.259C147.519 198.406 148.091 198.51 148.758 198.571C149.425 198.631 150.232 198.666 151.194 198.666H156.134C156.446 198.666 156.689 198.631 156.862 198.562C157.036 198.484 157.122 198.345 157.122 198.146C157.122 198.016 157.07 197.912 156.966 197.843C156.862 197.765 156.706 197.73 156.498 197.73C156.29 197.73 156.065 197.721 155.831 197.695C155.588 197.67 155.328 197.626 155.042 197.574C154.843 197.539 154.565 197.479 154.21 197.383C153.855 197.28 153.43 197.115 152.927 196.881C152.433 196.638 151.87 196.292 151.246 195.84C150.622 195.39 149.946 194.783 149.218 194.038C147.692 192.417 146.011 190.467 144.165 188.17C142.31 185.882 140.238 183.273 137.933 180.361C139.675 178.948 141.045 177.596 142.05 176.305C143.055 175.005 143.766 173.74 144.182 172.492C144.607 171.252 144.806 169.987 144.797 168.713C144.789 167.838 144.676 167.023 144.451 166.269C144.225 165.515 143.93 164.83 143.575 164.215C143.22 163.599 142.839 163.071 142.431 162.629C142.024 162.186 141.634 161.84 141.261 161.589C140.317 160.956 139.32 160.479 138.262 160.15C137.205 159.829 136.122 159.613 135.004 159.5C133.895 159.396 132.794 159.344 131.693 159.352C131.277 159.352 130.757 159.361 130.116 159.378C129.483 159.387 128.807 159.413 128.088 159.43C127.368 159.448 126.684 159.465 126.025 159.482C125.366 159.5 124.812 159.508 124.361 159.508C124.084 159.508 123.685 159.5 123.174 159.482C122.662 159.465 122.082 159.448 121.423 159.43C120.764 159.413 120.08 159.387 119.36 159.378C118.641 159.361 117.93 159.352 117.237 159.352C116.847 159.344 116.561 159.378 116.37 159.448C116.188 159.517 116.093 159.639 116.093 159.82C116.093 159.994 116.171 160.124 116.318 160.193C116.474 160.254 116.691 160.288 116.977 160.288C117.359 160.288 117.731 160.297 118.113 160.323C118.485 160.349 118.789 160.393 119.005 160.444C119.568 160.557 120.011 160.739 120.322 160.982C120.635 161.216 120.86 161.537 120.999 161.935C121.129 162.325 121.215 162.819 121.242 163.408C121.259 163.729 121.276 164.075 121.294 164.431C121.302 164.795 121.319 165.228 121.328 165.731C121.328 166.234 121.337 166.866 121.337 167.612C121.345 168.366 121.345 169.302 121.345 170.411C121.345 171.52 121.345 172.864 121.345 174.432V183.585L121.345 183.585ZM127.482 162.733C127.482 162.525 127.507 162.369 127.577 162.247C127.646 162.135 127.767 162.057 127.949 162.004C128.209 161.927 128.573 161.874 129.033 161.84C129.5 161.805 130.055 161.797 130.705 161.797C131.329 161.788 131.997 161.883 132.707 162.074C133.426 162.265 134.129 162.585 134.831 163.019C135.533 163.452 136.166 164.042 136.746 164.769C137.318 165.506 137.787 166.408 138.133 167.49C138.48 168.565 138.653 169.839 138.662 171.313C138.653 172.725 138.506 173.947 138.211 174.979C137.925 176.001 137.544 176.851 137.084 177.527C136.617 178.211 136.122 178.731 135.594 179.113C135.29 179.338 134.987 179.511 134.684 179.641C134.38 179.771 134.008 179.867 133.574 179.919C133.141 179.97 132.586 179.996 131.902 179.996C131.469 179.996 131.009 179.979 130.541 179.944C130.073 179.91 129.614 179.849 129.172 179.771C128.721 179.693 128.322 179.597 127.95 179.476C127.768 179.407 127.646 179.303 127.577 179.164C127.507 179.026 127.482 178.817 127.482 178.541V162.732L127.482 162.733ZM174.937 199.393C175.855 199.393 176.792 199.333 177.728 199.211C178.664 199.081 179.6 198.865 180.518 198.553C181.437 198.241 182.339 197.808 183.205 197.261C184.445 196.438 185.424 195.519 186.135 194.496C186.854 193.483 187.357 192.434 187.66 191.359C187.955 190.275 188.102 189.227 188.093 188.213C188.102 186.982 187.946 185.821 187.643 184.721C187.339 183.619 186.854 182.554 186.187 181.505C185.52 180.456 184.644 179.399 183.552 178.324C182.46 177.25 181.134 176.132 179.565 174.953L178.109 173.861C176.679 172.777 175.57 171.824 174.764 170.992C173.957 170.16 173.394 169.38 173.065 168.652C172.744 167.915 172.588 167.153 172.597 166.372C172.605 165.324 172.848 164.396 173.342 163.599C173.836 162.793 174.547 162.169 175.474 161.71C176.393 161.259 177.493 161.025 178.785 161.016C179.903 161.025 180.839 161.173 181.584 161.458C182.329 161.736 182.927 162.074 183.387 162.464C183.846 162.854 184.201 163.218 184.453 163.565C184.817 164.024 185.094 164.483 185.293 164.952C185.484 165.42 185.623 165.836 185.701 166.2C185.77 166.564 185.813 166.832 185.804 166.997C185.804 167.309 185.848 167.543 185.926 167.699C186.012 167.854 186.143 167.933 186.325 167.933C186.533 167.941 186.68 167.82 186.767 167.578C186.853 167.344 186.897 166.936 186.897 166.373C186.897 165.03 186.914 163.937 186.949 163.097C186.984 162.265 187.019 161.615 187.053 161.147C187.088 160.687 187.105 160.349 187.105 160.133C187.105 159.951 187.045 159.812 186.914 159.725C186.793 159.63 186.611 159.561 186.377 159.509C185.71 159.309 184.808 159.119 183.681 158.928C182.546 158.737 181.142 158.642 179.461 158.625C177.649 158.633 176.003 158.876 174.538 159.353C173.065 159.838 171.799 160.514 170.742 161.389C169.684 162.274 168.878 163.305 168.306 164.501C167.743 165.697 167.457 167.014 167.448 168.453C167.44 169.849 167.682 171.209 168.176 172.526C168.67 173.844 169.476 175.179 170.603 176.531C171.738 177.883 173.246 179.296 175.144 180.778L177.536 182.65C178.611 183.49 179.478 184.279 180.153 185.016C180.83 185.752 181.341 186.454 181.705 187.122C182.06 187.789 182.311 188.439 182.442 189.072C182.58 189.705 182.641 190.337 182.633 190.97C182.633 191.672 182.494 192.366 182.199 193.059C181.913 193.753 181.48 194.394 180.908 194.966C180.327 195.546 179.599 196.014 178.733 196.361C177.857 196.708 176.834 196.89 175.664 196.899C174.581 196.907 173.541 196.734 172.562 196.396C171.573 196.049 170.698 195.495 169.944 194.714C169.19 193.943 168.618 192.92 168.228 191.646C168.098 191.196 167.985 190.728 167.899 190.243C167.812 189.765 167.76 189.35 167.76 188.995C167.769 188.778 167.743 188.579 167.673 188.396C167.613 188.215 167.465 188.119 167.24 188.111C167.032 188.119 166.885 188.249 166.79 188.492C166.694 188.743 166.643 189.064 166.617 189.463C166.599 189.679 166.582 190.017 166.556 190.476C166.53 190.936 166.495 191.482 166.469 192.106C166.435 192.739 166.409 193.406 166.392 194.125C166.366 194.836 166.357 195.555 166.357 196.275C166.357 196.647 166.374 196.941 166.426 197.159C166.478 197.375 166.574 197.549 166.721 197.679C166.859 197.809 167.067 197.93 167.345 198.043C168.454 198.528 169.615 198.883 170.846 199.091C172.077 199.3 173.438 199.404 174.937 199.395V199.393ZM217.661 175.889C217.583 175.889 217.505 175.863 217.444 175.802C217.383 175.75 217.349 175.655 217.349 175.525V174.433C217.349 172.864 217.349 171.521 217.349 170.412C217.349 169.303 217.349 168.366 217.358 167.612C217.358 166.867 217.366 166.234 217.375 165.732C217.375 165.229 217.392 164.796 217.4 164.432C217.418 164.076 217.435 163.73 217.453 163.409C217.488 162.508 217.652 161.814 217.93 161.338C218.207 160.87 218.692 160.566 219.377 160.445C219.689 160.393 219.966 160.35 220.209 160.324C220.452 160.298 220.677 160.289 220.885 160.289C221.197 160.289 221.431 160.254 221.587 160.194C221.743 160.124 221.821 159.994 221.821 159.821C221.821 159.639 221.735 159.518 221.552 159.448C221.371 159.379 221.093 159.353 220.729 159.353C220.218 159.353 219.645 159.362 219.021 159.379C218.406 159.388 217.782 159.414 217.158 159.431C216.534 159.448 215.962 159.466 215.442 159.483C214.922 159.501 214.497 159.509 214.177 159.509C213.691 159.509 213.05 159.492 212.235 159.466C211.421 159.44 210.537 159.414 209.566 159.396C208.595 159.371 207.642 159.353 206.688 159.353C206.324 159.345 206.056 159.379 205.874 159.448C205.692 159.518 205.597 159.639 205.597 159.821C205.597 159.994 205.675 160.125 205.822 160.194C205.978 160.254 206.195 160.289 206.481 160.289C206.862 160.289 207.235 160.298 207.616 160.324C207.989 160.35 208.293 160.393 208.509 160.445C209.072 160.558 209.515 160.74 209.826 160.982C210.138 161.216 210.364 161.537 210.503 161.936C210.633 162.326 210.719 162.82 210.745 163.409C210.763 163.73 210.78 164.076 210.798 164.432C210.806 164.796 210.823 165.229 210.832 165.732C210.832 166.234 210.841 166.867 210.841 167.612C210.849 168.366 210.849 169.303 210.849 170.412C210.849 171.521 210.849 172.865 210.849 174.433V183.585C210.849 185.189 210.849 186.688 210.841 188.101C210.832 189.505 210.806 190.761 210.771 191.88C210.736 192.998 210.676 193.925 210.589 194.662C210.529 195.165 210.442 195.624 210.338 196.031C210.234 196.43 210.087 196.768 209.888 197.019C209.697 197.279 209.428 197.452 209.081 197.522C208.847 197.574 208.578 197.626 208.267 197.67C207.955 197.704 207.599 197.73 207.209 197.73C206.906 197.73 206.689 197.765 206.559 197.843C206.438 197.912 206.377 198.016 206.377 198.146C206.377 198.328 206.463 198.458 206.646 198.545C206.819 198.623 207.079 198.666 207.417 198.666C207.946 198.666 208.527 198.658 209.15 198.641C209.774 198.623 210.398 198.606 211.023 198.588C211.647 198.571 212.219 198.554 212.739 198.536C213.25 198.519 213.666 198.51 213.97 198.51C214.464 198.51 215.131 198.528 215.972 198.554C216.804 198.579 217.748 198.597 218.797 198.623C219.855 198.649 220.947 198.666 222.082 198.666C222.403 198.666 222.654 198.623 222.836 198.545C223.027 198.459 223.122 198.328 223.122 198.146C223.122 198.016 223.052 197.912 222.923 197.843C222.784 197.765 222.576 197.73 222.29 197.73C222.021 197.73 221.735 197.721 221.414 197.704C221.103 197.679 220.791 197.652 220.479 197.626C220.167 197.591 219.889 197.557 219.638 197.522C219.127 197.453 218.728 197.28 218.451 197.029C218.174 196.769 217.983 196.439 217.862 196.041C217.741 195.651 217.653 195.2 217.611 194.715C217.524 193.961 217.463 193.025 217.428 191.898C217.394 190.771 217.368 189.506 217.359 188.102C217.351 186.689 217.351 185.19 217.351 183.587V179.01C217.351 178.88 217.385 178.794 217.446 178.759C217.506 178.716 217.585 178.689 217.662 178.698H237.527C237.614 178.698 237.683 178.724 237.744 178.776C237.804 178.828 237.839 178.907 237.839 179.01V183.587C237.839 185.19 237.839 186.689 237.831 188.102C237.822 189.506 237.805 190.763 237.761 191.881C237.726 192.999 237.665 193.926 237.579 194.663C237.518 195.166 237.432 195.625 237.328 196.033C237.224 196.431 237.076 196.769 236.877 197.021C236.686 197.28 236.418 197.454 236.071 197.523C235.837 197.575 235.568 197.627 235.256 197.671C234.944 197.705 234.589 197.731 234.199 197.731C233.895 197.731 233.679 197.766 233.549 197.844C233.427 197.914 233.367 198.017 233.367 198.148C233.367 198.329 233.462 198.459 233.644 198.546C233.826 198.624 234.095 198.668 234.459 198.668C234.979 198.668 235.542 198.659 236.166 198.642C236.781 198.624 237.405 198.607 238.021 198.589C238.645 198.572 239.208 198.555 239.728 198.538C240.239 198.52 240.656 198.512 240.959 198.512C241.453 198.512 242.12 198.529 242.961 198.555C243.793 198.581 244.738 198.598 245.795 198.624C246.843 198.65 247.936 198.668 249.071 198.668C249.392 198.668 249.643 198.624 249.825 198.546C250.016 198.46 250.111 198.33 250.111 198.148C250.111 198.017 250.042 197.914 249.912 197.844C249.773 197.766 249.565 197.731 249.279 197.731C249.019 197.731 248.724 197.723 248.404 197.705C248.092 197.68 247.78 197.653 247.468 197.627C247.156 197.593 246.879 197.558 246.627 197.524C246.116 197.454 245.717 197.281 245.44 197.03C245.172 196.77 244.972 196.44 244.851 196.042C244.73 195.652 244.643 195.201 244.6 194.716C244.513 193.962 244.452 193.026 244.418 191.899C244.383 190.772 244.357 189.508 244.348 188.103C244.34 186.69 244.34 185.191 244.34 183.588V174.435C244.34 172.867 244.34 171.523 244.34 170.414C244.34 169.305 244.34 168.369 244.348 167.615C244.348 166.87 244.357 166.237 244.366 165.734C244.374 165.231 244.383 164.799 244.392 164.434C244.409 164.079 244.426 163.732 244.443 163.412C244.478 162.51 244.643 161.817 244.921 161.34C245.198 160.872 245.683 160.569 246.368 160.447C246.68 160.395 246.957 160.352 247.2 160.326C247.443 160.3 247.668 160.292 247.876 160.292C248.188 160.292 248.422 160.257 248.578 160.196C248.734 160.127 248.812 159.997 248.812 159.823C248.812 159.642 248.725 159.52 248.543 159.451C248.361 159.381 248.084 159.356 247.72 159.356C247.209 159.356 246.637 159.364 246.021 159.381C245.397 159.39 244.773 159.416 244.149 159.433C243.534 159.451 242.962 159.468 242.433 159.486C241.913 159.503 241.488 159.512 241.168 159.512C240.813 159.512 240.353 159.503 239.798 159.486C239.253 159.468 238.629 159.451 237.953 159.433C237.276 159.416 236.566 159.39 235.838 159.381C235.11 159.364 234.39 159.356 233.68 159.356C233.316 159.347 233.047 159.381 232.865 159.451C232.683 159.521 232.588 159.642 232.588 159.823C232.588 159.997 232.666 160.127 232.814 160.196C232.97 160.257 233.186 160.292 233.472 160.292C233.854 160.292 234.226 160.3 234.608 160.326C234.981 160.352 235.284 160.396 235.501 160.447C236.064 160.56 236.506 160.742 236.818 160.985C237.138 161.219 237.355 161.54 237.494 161.938C237.624 162.328 237.71 162.822 237.737 163.412C237.763 163.732 237.78 164.079 237.789 164.434C237.806 164.799 237.815 165.231 237.824 165.734C237.824 166.237 237.832 166.87 237.832 167.615C237.841 168.369 237.841 169.305 237.841 170.414C237.841 171.523 237.841 172.867 237.841 174.435V175.528C237.841 175.658 237.806 175.753 237.745 175.804C237.685 175.865 237.615 175.891 237.528 175.891H217.664L217.661 175.889Z" fill="#5B5B5B"/>
<path d="M285.45 185.094C285.58 185.094 285.684 185.119 285.771 185.18C285.848 185.232 285.918 185.328 285.97 185.457L290.13 196.481C290.251 196.803 290.251 197.062 290.13 197.279C290.017 197.487 289.861 197.625 289.662 197.678C289.402 197.703 289.22 197.747 289.107 197.816C288.986 197.886 288.934 197.99 288.934 198.146C288.942 198.319 289.081 198.423 289.367 198.466C289.644 198.51 290.017 198.545 290.494 198.562C291.889 198.596 293.215 198.622 294.472 198.631C295.728 198.649 296.864 198.657 297.869 198.657C298.866 198.666 299.689 198.666 300.322 198.666C300.955 198.666 301.449 198.648 301.795 198.622C302.142 198.596 302.384 198.545 302.523 198.466C302.654 198.388 302.723 198.285 302.714 198.146C302.714 197.972 302.654 197.851 302.532 197.799C302.411 197.747 302.246 197.721 302.039 197.729C301.726 197.729 301.38 197.712 301.007 197.686C300.635 197.651 300.245 197.6 299.855 197.522C299.586 197.452 299.283 197.331 298.953 197.158C298.633 196.984 298.278 196.698 297.896 196.308C297.515 195.909 297.107 195.355 296.674 194.636C296.241 193.916 295.773 192.98 295.279 191.827C294.863 190.831 294.378 189.66 293.823 188.308C293.268 186.956 292.67 185.492 292.037 183.914C291.396 182.328 290.738 180.699 290.061 179.009C289.385 177.319 288.718 175.638 288.051 173.965C287.383 172.292 286.742 170.697 286.135 169.163C285.52 167.629 284.965 166.234 284.454 164.96C283.951 163.695 283.518 162.62 283.162 161.744C282.798 160.86 282.547 160.236 282.382 159.872C282.131 159.283 281.905 158.849 281.715 158.589C281.516 158.33 281.308 158.199 281.082 158.208C280.831 158.199 280.605 158.355 280.398 158.685C280.181 159.006 279.929 159.543 279.626 160.288L266.574 192.945C266.236 193.812 265.88 194.583 265.499 195.242C265.118 195.909 264.659 196.446 264.13 196.854C263.601 197.261 262.943 197.521 262.154 197.625C261.937 197.651 261.669 197.677 261.365 197.694C261.061 197.72 260.785 197.729 260.542 197.729C260.334 197.729 260.178 197.755 260.074 197.825C259.97 197.885 259.918 197.989 259.918 198.146C259.918 198.345 259.996 198.483 260.161 198.562C260.316 198.631 260.568 198.665 260.906 198.665C261.59 198.665 262.258 198.657 262.925 198.639C263.592 198.622 264.207 198.605 264.771 198.587C265.343 198.57 265.828 198.553 266.218 198.535C266.617 198.518 266.894 198.509 267.042 198.509C267.588 198.509 268.177 198.527 268.818 198.553C269.46 198.578 270.101 198.596 270.742 198.622C271.392 198.648 271.99 198.665 272.553 198.665C272.84 198.665 273.056 198.63 273.212 198.562C273.36 198.483 273.438 198.345 273.438 198.146C273.446 197.99 273.394 197.886 273.282 197.825C273.169 197.755 272.961 197.729 272.658 197.729H271.878C271.089 197.721 270.535 197.573 270.231 197.279C269.928 196.984 269.78 196.594 269.798 196.117C269.798 195.797 269.867 195.346 269.997 194.783C270.127 194.219 270.318 193.604 270.578 192.945L273.386 185.509C273.438 185.353 273.49 185.249 273.559 185.18C273.629 185.119 273.724 185.093 273.854 185.093H285.45L285.45 185.094ZM274.893 182.493C274.789 182.493 274.72 182.458 274.694 182.39C274.659 182.32 274.659 182.233 274.685 182.13L279.47 169.338C279.496 169.225 279.539 169.121 279.591 169.025C279.643 168.93 279.704 168.878 279.782 168.869C279.86 168.878 279.912 168.93 279.955 169.025C279.99 169.121 280.016 169.225 280.042 169.338L284.722 182.182C284.748 182.26 284.748 182.338 284.713 182.398C284.67 182.459 284.592 182.494 284.461 182.494H274.893V182.493ZM323.753 196.222C324.074 197.028 324.343 197.669 324.551 198.128C324.767 198.596 324.958 198.926 325.14 199.116C325.313 199.307 325.512 199.402 325.729 199.393C325.963 199.402 326.18 199.29 326.37 199.064C326.57 198.838 326.795 198.448 327.064 197.885C327.324 197.322 327.679 196.542 328.121 195.545C328.503 194.67 329.022 193.474 329.681 191.966C330.34 190.449 331.12 188.664 332.022 186.592C332.923 184.521 333.928 182.224 335.038 179.685C335.601 178.411 336.104 177.258 336.571 176.235C337.031 175.204 337.464 174.251 337.863 173.367C338.262 172.492 338.643 171.642 339.016 170.819C339.38 170.004 339.752 169.172 340.116 168.323C340.489 167.473 340.879 166.563 341.278 165.592C341.746 164.492 342.145 163.634 342.491 163.001C342.838 162.377 343.141 161.9 343.41 161.588C343.67 161.285 343.913 161.051 344.138 160.912C344.459 160.704 344.779 160.557 345.1 160.47C345.421 160.384 345.724 160.331 346.002 160.305C346.279 160.288 346.513 160.28 346.686 160.288C346.946 160.288 347.154 160.254 347.302 160.193C347.44 160.123 347.518 159.994 347.518 159.82C347.518 159.639 347.414 159.517 347.224 159.448C347.033 159.378 346.764 159.352 346.426 159.352C346.028 159.352 345.595 159.361 345.126 159.378C344.659 159.387 344.199 159.413 343.731 159.43C343.263 159.448 342.839 159.465 342.457 159.483C342.076 159.5 341.764 159.508 341.539 159.508C341.305 159.508 340.932 159.491 340.403 159.465C339.874 159.439 339.241 159.413 338.496 159.396C337.76 159.37 336.953 159.352 336.078 159.352C335.584 159.344 335.22 159.378 334.977 159.456C334.743 159.526 334.622 159.665 334.622 159.872C334.631 160.045 334.718 160.158 334.891 160.219C335.056 160.271 335.264 160.288 335.506 160.288C335.853 160.288 336.2 160.305 336.564 160.34C336.928 160.375 337.266 160.444 337.587 160.548C337.821 160.627 337.994 160.765 338.098 160.947C338.211 161.121 338.262 161.32 338.262 161.537C338.262 161.78 338.21 162.074 338.124 162.421C338.037 162.768 337.925 163.114 337.795 163.461C337.613 163.963 337.326 164.7 336.954 165.671C336.572 166.65 336.122 167.786 335.611 169.095C335.09 170.403 334.536 171.799 333.946 173.289C333.348 174.788 332.742 176.305 332.127 177.839C331.511 179.382 330.922 180.873 330.341 182.32C329.76 183.768 329.241 185.094 328.755 186.298C328.278 187.511 327.871 188.525 327.55 189.358H327.342L318.398 165.749C318.034 164.804 317.74 163.989 317.532 163.296C317.315 162.603 317.211 162.091 317.202 161.745C317.202 161.511 317.245 161.302 317.323 161.121C317.41 160.939 317.54 160.783 317.722 160.653C317.939 160.497 318.225 160.402 318.58 160.349C318.935 160.306 319.325 160.28 319.75 160.289C319.984 160.289 320.175 160.254 320.313 160.193C320.452 160.124 320.53 159.994 320.53 159.821C320.521 159.639 320.4 159.517 320.166 159.448C319.932 159.379 319.655 159.353 319.334 159.353C318.458 159.353 317.618 159.37 316.812 159.396C315.997 159.414 315.261 159.439 314.593 159.465C313.934 159.491 313.38 159.509 312.938 159.509C312.323 159.509 311.603 159.491 310.788 159.465C309.965 159.44 309.099 159.414 308.171 159.396C307.253 159.37 306.325 159.353 305.398 159.353C304.999 159.344 304.679 159.37 304.427 159.431C304.184 159.491 304.055 159.622 304.046 159.821C304.046 159.977 304.089 160.089 304.184 160.168C304.28 160.245 304.436 160.289 304.67 160.289C304.886 160.28 305.181 160.289 305.545 160.314C305.918 160.332 306.299 160.393 306.698 160.496C307.313 160.653 307.842 160.86 308.292 161.112C308.734 161.372 309.141 161.753 309.505 162.264C309.878 162.785 310.259 163.504 310.649 164.449L323.754 196.221L323.753 196.222ZM363.461 183.585C363.461 185.189 363.461 186.688 363.453 188.101C363.444 189.505 363.418 190.762 363.383 191.88C363.349 192.998 363.288 193.925 363.201 194.662C363.141 195.165 363.054 195.624 362.95 196.023C362.846 196.43 362.699 196.759 362.5 197.019C362.309 197.279 362.04 197.452 361.693 197.522C361.459 197.574 361.191 197.625 360.879 197.669C360.567 197.704 360.211 197.73 359.821 197.73C359.518 197.73 359.301 197.765 359.171 197.842C359.05 197.912 358.989 198.016 358.989 198.146C358.989 198.328 359.076 198.458 359.258 198.545C359.431 198.623 359.691 198.666 360.029 198.666C360.558 198.658 361.139 198.64 361.763 198.614C362.395 198.579 363.01 198.562 363.617 198.562C364.25 198.536 364.831 198.519 365.35 198.519C365.879 198.51 366.286 198.51 366.581 198.51C367.353 198.51 368.168 198.519 369.034 198.545C369.901 198.571 370.88 198.614 371.99 198.666C373.099 198.692 374.39 198.727 375.864 198.761C377.337 198.796 379.045 198.822 380.986 198.822C381.636 198.831 382.147 198.814 382.511 198.77C382.875 198.727 383.153 198.614 383.343 198.423C383.534 198.232 383.681 197.912 383.794 197.47C383.863 197.201 383.933 196.803 384.01 196.3C384.088 195.789 384.158 195.234 384.227 194.645C384.297 194.047 384.357 193.483 384.4 192.955C384.444 192.426 384.47 192.01 384.47 191.698C384.478 191.429 384.461 191.213 384.418 191.039C384.374 190.858 384.253 190.771 384.054 190.762C383.88 190.762 383.75 190.814 383.672 190.935C383.594 191.057 383.525 191.257 383.481 191.542C383.308 192.6 383.039 193.423 382.684 194.03C382.32 194.636 381.809 195.087 381.141 195.39C380.682 195.598 380.162 195.737 379.572 195.832C378.992 195.919 378.403 195.971 377.822 195.988C377.241 196.014 376.713 196.014 376.253 196.014C374.936 196.023 373.87 195.962 373.055 195.84C372.241 195.71 371.616 195.494 371.183 195.174C370.75 194.861 370.455 194.411 370.282 193.839C370.117 193.267 370.03 192.538 370.013 191.646C370.004 191.334 369.996 190.918 369.996 190.398C369.987 189.878 369.987 189.297 369.987 188.665C369.996 188.032 369.996 187.4 369.996 186.749C370.004 186.108 370.004 185.51 370.004 184.955C370.013 184.4 370.013 183.95 370.013 183.586V179.478C370.013 179.321 370.03 179.191 370.073 179.096C370.116 179.01 370.195 178.957 370.325 178.957C370.585 178.957 370.966 178.957 371.477 178.966C371.988 178.966 372.552 178.974 373.176 178.983C373.809 178.992 374.424 179.001 375.039 179.009C375.655 179.027 376.209 179.035 376.686 179.053C377.163 179.07 377.501 179.087 377.709 179.113C378.35 179.182 378.861 179.312 379.26 179.503C379.659 179.685 379.962 179.919 380.179 180.196C380.395 180.474 380.543 180.795 380.621 181.141C380.699 181.479 380.742 181.818 380.768 182.138C380.786 182.458 380.811 182.753 380.829 183.013C380.829 183.143 380.864 183.256 380.924 183.342C380.994 183.429 381.115 183.481 381.297 183.481C381.453 183.472 381.557 183.42 381.626 183.316C381.696 183.212 381.73 183.082 381.747 182.935C381.765 182.779 381.765 182.631 381.765 182.493C381.765 182.397 381.773 182.206 381.791 181.938C381.808 181.669 381.825 181.357 381.851 181.002C381.869 180.647 381.895 180.291 381.921 179.936C381.938 179.589 381.955 179.277 381.973 179.008C382.043 178.133 382.111 177.431 382.172 176.911C382.233 176.391 382.285 176.001 382.328 175.75C382.371 175.49 382.389 175.308 382.389 175.212C382.389 175.056 382.354 174.952 382.285 174.883C382.215 174.822 382.129 174.796 382.025 174.796C381.904 174.796 381.774 174.857 381.653 174.978C381.522 175.1 381.375 175.265 381.193 175.472C380.959 175.723 380.647 175.905 380.24 176.018C379.832 176.131 379.321 176.209 378.697 176.252C378.445 176.27 378.038 176.287 377.483 176.304C376.928 176.313 376.287 176.33 375.585 176.33C374.875 176.338 374.164 176.347 373.453 176.347C372.751 176.356 372.119 176.356 371.564 176.356C371.018 176.356 370.619 176.356 370.377 176.356C370.221 176.356 370.125 176.304 370.073 176.208C370.03 176.105 370.004 175.965 370.013 175.783V162.627C370.013 162.445 370.039 162.315 370.099 162.228C370.151 162.142 370.246 162.107 370.376 162.107C370.593 162.107 370.957 162.107 371.46 162.116C371.963 162.124 372.534 162.133 373.167 162.15C373.808 162.159 374.45 162.176 375.083 162.193C375.715 162.211 376.27 162.228 376.755 162.254C377.241 162.272 377.57 162.289 377.761 162.315C378.618 162.419 379.277 162.558 379.737 162.731C380.204 162.904 380.543 163.112 380.759 163.355C380.976 163.597 381.141 163.875 381.245 164.187C381.331 164.395 381.401 164.629 381.444 164.871C381.487 165.105 381.522 165.339 381.531 165.547C381.548 165.764 381.556 165.929 381.556 166.059C381.556 166.293 381.591 166.475 381.652 166.596C381.721 166.717 381.842 166.787 382.024 166.787C382.206 166.778 382.328 166.717 382.406 166.596C382.475 166.475 382.527 166.353 382.544 166.214C382.57 166.05 382.596 165.807 382.622 165.486C382.648 165.165 382.675 164.827 382.692 164.455C382.718 164.091 382.735 163.753 382.761 163.449C382.779 163.146 382.796 162.921 382.805 162.783C382.857 161.994 382.917 161.379 382.978 160.919C383.048 160.468 383.099 160.13 383.151 159.905C383.195 159.68 383.221 159.515 383.221 159.403C383.221 159.273 383.203 159.16 383.16 159.073C383.117 158.987 383.039 158.934 382.909 158.934C382.779 158.943 382.64 158.969 382.493 159.021C382.345 159.073 382.207 159.108 382.077 159.142C381.861 159.194 381.566 159.246 381.176 159.298C380.786 159.35 380.344 159.402 379.841 159.454C379.668 159.463 379.269 159.472 378.654 159.472C378.038 159.48 377.284 159.489 376.401 159.489C375.516 159.498 374.58 159.498 373.592 159.498C372.604 159.498 371.651 159.506 370.732 159.506C369.813 159.506 369.007 159.506 368.314 159.506C367.62 159.506 367.135 159.506 366.84 159.506C366.468 159.506 366 159.498 365.437 159.471C364.873 159.454 364.249 159.428 363.564 159.402C362.906 159.402 362.221 159.393 361.502 159.376C360.774 159.358 360.063 159.35 359.352 159.35C358.962 159.35 358.676 159.376 358.486 159.445C358.304 159.515 358.208 159.636 358.208 159.818C358.208 159.991 358.286 160.121 358.434 160.19C358.59 160.251 358.806 160.286 359.093 160.286C359.474 160.286 359.847 160.295 360.228 160.32C360.601 160.346 360.904 160.39 361.121 160.442C361.684 160.563 362.126 160.736 362.438 160.979C362.75 161.222 362.976 161.534 363.114 161.932C363.244 162.331 363.331 162.817 363.357 163.406C363.374 163.727 363.392 164.073 363.409 164.429C363.418 164.793 363.435 165.226 363.444 165.729C363.444 166.231 363.452 166.864 363.452 167.618C363.461 168.363 363.461 169.299 363.461 170.409C363.461 171.518 363.461 172.862 363.461 174.43V183.582L363.461 183.585ZM406.705 183.585C406.705 185.189 406.705 186.688 406.696 188.101C406.688 189.505 406.662 190.762 406.627 191.88C406.592 192.998 406.532 193.925 406.445 194.662C406.385 195.165 406.298 195.624 406.194 196.023C406.09 196.43 405.942 196.759 405.743 197.019C405.552 197.279 405.284 197.452 404.937 197.522C404.703 197.574 404.434 197.625 404.123 197.669C403.81 197.704 403.455 197.73 403.065 197.73C402.762 197.73 402.545 197.765 402.415 197.842C402.293 197.912 402.233 198.016 402.233 198.146C402.233 198.328 402.319 198.458 402.502 198.545C402.675 198.623 402.935 198.666 403.273 198.666C403.801 198.658 404.382 198.64 405.006 198.614C405.639 198.579 406.254 198.562 406.861 198.562C407.494 198.536 408.074 198.519 408.594 198.519C409.123 198.51 409.53 198.51 409.825 198.51C410.484 198.51 411.246 198.545 412.122 198.605C412.988 198.666 413.924 198.744 414.921 198.822C415.917 198.9 416.932 198.978 417.954 199.039C418.977 199.099 419.956 199.134 420.901 199.134C423.301 199.117 425.451 198.918 427.349 198.519C429.238 198.12 430.902 197.608 432.324 196.985C433.746 196.352 434.95 195.693 435.947 194.991C436.935 194.289 437.732 193.622 438.322 192.998C439.058 192.253 439.761 191.394 440.436 190.398C441.113 189.41 441.719 188.309 442.248 187.087C442.785 185.865 443.201 184.539 443.513 183.1C443.825 181.67 443.981 180.127 443.99 178.489C443.972 176.426 443.73 174.572 443.262 172.916C442.785 171.261 442.17 169.796 441.407 168.531C440.653 167.265 439.829 166.182 438.945 165.281C437.81 164.102 436.562 163.14 435.227 162.386C433.884 161.632 432.488 161.051 431.033 160.635C429.577 160.211 428.103 159.916 426.612 159.734C425.122 159.552 423.657 159.44 422.218 159.397C420.771 159.362 419.401 159.344 418.093 159.353C417.044 159.353 416.004 159.371 414.99 159.397C413.967 159.414 413.031 159.44 412.182 159.466C411.333 159.492 410.631 159.509 410.084 159.509C409.582 159.509 408.923 159.492 408.109 159.466C407.294 159.44 406.401 159.414 405.439 159.397C404.477 159.371 403.532 159.353 402.596 159.353C402.206 159.345 401.92 159.379 401.729 159.448C401.547 159.518 401.452 159.639 401.452 159.821C401.452 159.995 401.53 160.125 401.678 160.194C401.834 160.254 402.05 160.289 402.336 160.289C402.718 160.289 403.09 160.298 403.472 160.324C403.844 160.35 404.148 160.393 404.365 160.445C404.928 160.558 405.37 160.74 405.682 160.983C405.994 161.216 406.219 161.538 406.358 161.936C406.488 162.326 406.574 162.82 406.601 163.409C406.618 163.73 406.636 164.076 406.653 164.432C406.662 164.796 406.679 165.229 406.688 165.732C406.688 166.235 406.696 166.867 406.696 167.613C406.705 168.367 406.705 169.303 406.705 170.412C406.705 171.521 406.705 172.865 406.705 174.433V183.585H406.705ZM413.205 173.601C413.205 172.561 413.205 171.53 413.205 170.49C413.205 169.449 413.205 168.461 413.214 167.525C413.214 166.581 413.222 165.74 413.231 164.994C413.231 164.249 413.248 163.651 413.257 163.2C413.257 162.914 413.3 162.697 413.395 162.542C413.491 162.386 413.647 162.255 413.881 162.16C413.993 162.108 414.175 162.056 414.436 162.013C414.696 161.969 414.999 161.934 415.337 161.9C415.675 161.865 416.013 161.839 416.351 161.822C416.689 161.805 416.992 161.796 417.261 161.796C418.283 161.788 419.401 161.839 420.606 161.961C421.82 162.082 423.068 162.325 424.377 162.68C425.677 163.035 426.977 163.556 428.277 164.249C429.577 164.943 430.825 165.861 432.029 166.996C432.601 167.525 433.173 168.193 433.754 168.998C434.335 169.796 434.873 170.741 435.366 171.815C435.86 172.898 436.259 174.12 436.553 175.481C436.857 176.842 437.013 178.341 437.021 179.996C437.03 181.791 436.9 183.489 436.632 185.101C436.363 186.705 435.903 188.178 435.271 189.504C434.629 190.839 433.754 191.983 432.653 192.945C431.622 193.846 430.521 194.565 429.342 195.12C428.173 195.666 426.873 196.065 425.46 196.316C424.039 196.567 422.453 196.698 420.693 196.689C419.333 196.68 418.18 196.576 417.252 196.368C416.325 196.16 415.58 195.9 415.034 195.588C414.488 195.276 414.098 194.947 413.881 194.608C413.743 194.4 413.639 194.071 413.561 193.62C413.483 193.161 413.422 192.667 413.387 192.13C413.352 191.592 413.327 191.107 413.309 190.656C413.292 190.318 413.275 189.668 413.257 188.715C413.24 187.762 413.231 186.566 413.223 185.109C413.214 183.654 413.205 181.998 413.205 180.152V173.6V173.601Z" fill="#5B5B5B"/>
<path d="M486.492 180.828C486.663 180.828 486.801 180.863 486.914 180.943C487.017 181.011 487.109 181.137 487.177 181.308L492.66 195.837C492.82 196.26 492.82 196.603 492.66 196.888C492.511 197.162 492.306 197.345 492.043 197.414C491.7 197.448 491.461 197.505 491.312 197.596C491.153 197.688 491.084 197.825 491.084 198.03C491.095 198.259 491.278 198.396 491.655 198.453C492.021 198.51 492.512 198.556 493.14 198.579C494.979 198.624 496.727 198.659 498.383 198.67C500.039 198.693 501.535 198.705 502.86 198.705C504.174 198.716 505.259 198.716 506.093 198.716C506.927 198.716 507.578 198.693 508.034 198.659C508.491 198.624 508.811 198.556 508.994 198.453C509.165 198.35 509.257 198.213 509.245 198.031C509.245 197.802 509.165 197.642 509.005 197.574C508.846 197.505 508.629 197.471 508.354 197.482C507.943 197.482 507.486 197.46 506.995 197.425C506.504 197.379 505.99 197.311 505.476 197.208C505.122 197.117 504.722 196.957 504.289 196.729C503.866 196.5 503.398 196.123 502.895 195.609C502.392 195.084 501.856 194.353 501.285 193.405C500.714 192.457 500.097 191.223 499.446 189.704C498.898 188.39 498.258 186.849 497.527 185.067C496.796 183.285 496.008 181.354 495.175 179.276C494.329 177.186 493.461 175.038 492.57 172.811C491.68 170.584 490.8 168.368 489.921 166.164C489.041 163.959 488.196 161.857 487.396 159.836C486.585 157.814 485.854 155.975 485.18 154.296C484.518 152.629 483.947 151.213 483.478 150.058C482.999 148.894 482.667 148.071 482.451 147.591C482.119 146.815 481.822 146.244 481.571 145.901C481.309 145.558 481.034 145.387 480.737 145.398C480.406 145.387 480.109 145.592 479.835 146.026C479.549 146.449 479.218 147.157 478.818 148.139L461.617 191.177C461.171 192.319 460.703 193.336 460.2 194.205C459.698 195.084 459.092 195.792 458.396 196.329C457.699 196.866 456.831 197.208 455.791 197.345C455.506 197.38 455.152 197.414 454.752 197.437C454.352 197.471 453.987 197.483 453.667 197.483C453.393 197.483 453.187 197.517 453.05 197.608C452.914 197.688 452.845 197.825 452.845 198.031C452.845 198.294 452.948 198.476 453.164 198.579C453.37 198.671 453.702 198.716 454.147 198.716C455.049 198.716 455.929 198.705 456.808 198.681C457.688 198.659 458.499 198.636 459.241 198.613C459.995 198.59 460.634 198.567 461.149 198.544C461.674 198.521 462.039 198.51 462.234 198.51C462.953 198.51 463.73 198.533 464.575 198.567C465.42 198.602 466.266 198.624 467.111 198.659C467.967 198.693 468.756 198.716 469.498 198.716C469.874 198.716 470.16 198.67 470.366 198.579C470.56 198.476 470.663 198.294 470.663 198.031C470.674 197.825 470.606 197.688 470.457 197.608C470.309 197.517 470.035 197.483 469.635 197.483H468.607C467.567 197.471 466.836 197.277 466.437 196.889C466.037 196.5 465.843 195.986 465.865 195.358C465.865 194.936 465.957 194.341 466.128 193.599C466.299 192.857 466.551 192.045 466.894 191.177L470.594 181.378C470.663 181.172 470.731 181.035 470.823 180.943C470.914 180.864 471.04 180.829 471.211 180.829H486.494L486.492 180.828ZM472.58 177.402C472.443 177.402 472.352 177.356 472.317 177.265C472.272 177.173 472.272 177.059 472.306 176.922L478.611 160.063C478.645 159.915 478.702 159.778 478.77 159.652C478.839 159.527 478.919 159.458 479.022 159.447C479.125 159.458 479.193 159.527 479.25 159.652C479.296 159.778 479.33 159.915 479.365 160.063L485.532 176.991C485.567 177.094 485.567 177.196 485.521 177.276C485.464 177.356 485.361 177.402 485.19 177.402H472.58H472.58Z" fill="#5B5B5B"/>
</g>
<defs>
<clipPath id="clip0_497_24761">
<rect width="509.246" height="199.395" fill="white"/>
</clipPath>
</defs>
</svg>
