<svg width="80" height="80" viewBox="0 0 80 80" fill="none" xmlns="http://www.w3.org/2000/svg">
<path d="M77.012 54.1322C75.816 53.1039 74.952 52.3597 73.836 50.6032C73.224 49.6389 72.452 48.1825 72.264 46.718C71.94 44.2653 70.76 42.1486 68.852 40.6082C68.624 40.4241 68.384 40.2601 68.132 40.108C68.388 39.96 68.636 39.7919 68.864 39.6079C70.816 38.0554 71.976 36.0068 72.32 33.5221C72.476 32.4017 73.004 31.1013 73.848 29.7609C74.952 28.0124 75.872 27.2122 77.14 26.1078C77.36 25.9118 77.584 25.7157 77.824 25.5037L80 23.5671L77.092 23.7511C76.768 23.7711 76.464 23.7951 76.172 23.8151C74.6 23.9352 73.464 24.0232 71.428 23.5711C70.316 23.323 68.744 22.8389 67.572 21.9346C65.608 20.4261 63.28 19.7699 60.84 20.026C60.544 20.058 60.244 20.114 59.952 20.1901C60.032 19.902 60.088 19.6059 60.124 19.3098C60.404 16.837 59.776 14.5644 58.264 12.5638C57.58 11.6595 57.032 10.3671 56.684 8.82265C56.232 6.80604 56.312 5.58968 56.428 3.90917C56.448 3.62109 56.468 3.321 56.488 3.0049L56.656 0.0920276L54.732 2.28068C54.516 2.52476 54.316 2.75283 54.124 2.97689C53.1 4.17325 52.352 5.03751 50.596 6.15785C49.636 6.77003 48.18 7.53826 46.712 7.73032C44.26 8.05042 42.148 9.23077 40.604 11.1433C40.42 11.3714 40.252 11.6155 40.1 11.8756C39.952 11.6155 39.788 11.3714 39.604 11.1393C38.052 9.19076 36.004 8.02641 33.52 7.6823C32.396 7.53026 31.096 6.9981 29.76 6.15385C28.012 5.04951 27.212 4.13324 26.104 2.86486C25.912 2.64479 25.716 2.41672 25.504 2.18065L23.568 0L23.752 2.90887C23.772 3.23297 23.796 3.53706 23.816 3.82915C23.936 5.40562 24.02 6.54196 23.568 8.57457C23.32 9.68691 22.84 11.2634 21.936 12.4357C20.428 14.3963 19.768 16.725 20.028 19.1698C20.06 19.4618 20.112 19.7499 20.188 20.042C19.9 19.962 19.608 19.906 19.316 19.874C16.84 19.5939 14.572 20.2181 12.572 21.7345C11.668 22.4187 10.376 22.9629 8.832 23.311C6.816 23.7671 5.6 23.6871 3.92 23.5711C3.632 23.5511 3.328 23.5271 3.012 23.5111L0.103998 23.343L2.288 25.2676C2.532 25.4836 2.764 25.6797 2.984 25.8718C4.184 26.9001 5.048 27.6443 6.164 29.4048C6.776 30.3651 7.548 31.8175 7.74 33.286C8.06 35.7427 9.24 37.8554 11.148 39.3998C11.376 39.5799 11.616 39.7439 11.872 39.896C11.612 40.044 11.368 40.2121 11.136 40.3961C9.188 41.9486 8.024 43.9932 7.68 46.4819C7.528 47.6023 6.996 48.9027 6.152 50.2431C5.048 51.9916 4.132 52.7918 2.864 53.9002C2.644 54.0882 2.416 54.2883 2.176 54.5004L0 56.4369L2.908 56.2529C3.232 56.2289 3.536 56.2089 3.828 56.1849C5.4 56.0688 6.54 55.9848 8.572 56.4369C9.684 56.681 11.256 57.1651 12.432 58.0694C14.392 59.5779 16.72 60.2381 19.164 59.978C19.476 59.946 19.788 59.882 20.096 59.7979C20.056 59.986 20.024 60.174 20.004 60.3661C19.724 62.8388 20.348 65.1115 21.864 67.1121C22.548 68.0164 23.092 69.3088 23.44 70.8533C23.896 72.8699 23.812 74.0822 23.696 75.7667C23.68 76.0548 23.656 76.3549 23.64 76.675L23.468 79.5839L25.396 77.3952C25.608 77.1511 25.808 76.9231 26 76.699C27.028 75.5026 27.772 74.6384 29.528 73.5181C30.492 72.9059 31.944 72.1376 33.412 71.9456C35.864 71.6255 37.98 70.4451 39.52 68.5326C39.64 68.3845 39.752 68.2325 39.856 68.0684C40.016 68.3485 40.192 68.6126 40.388 68.8607C41.94 70.8092 43.988 71.9736 46.472 72.3177C47.592 72.4697 48.892 72.9979 50.232 73.8462C51.98 74.9505 52.78 75.8668 53.884 77.1391C54.08 77.3592 54.276 77.5833 54.488 77.8233L56.424 80L56.24 77.0911C56.216 76.767 56.196 76.4629 56.172 76.1708C56.056 74.5984 55.972 73.458 56.424 71.4254C56.668 70.3091 57.152 68.7366 58.056 67.5643C59.56 65.6037 60.224 63.275 59.96 60.8342C59.932 60.5382 59.876 60.2501 59.804 59.962C60.092 60.042 60.388 60.098 60.684 60.13C63.16 60.4101 65.428 59.7859 67.432 58.2695C68.332 57.5853 69.624 57.0411 71.168 56.693C73.188 56.2369 74.4 56.3209 76.08 56.4329C76.372 56.4529 76.672 56.4729 76.988 56.4929L79.896 56.665L77.712 54.7364C77.468 54.5244 77.236 54.3243 77.012 54.1322ZM61.052 22.0226C62.32 21.8906 63.516 22.0586 64.632 22.5228C65.228 22.7748 65.8 23.1109 66.348 23.5271C67.812 24.6554 69.68 25.2396 70.996 25.5277C72.372 25.8357 73.4 25.9278 74.356 25.9238C73.628 26.644 72.916 27.4762 72.152 28.6886C71.456 29.7929 70.576 31.4734 70.332 33.246C70.06 35.2066 69.144 36.819 67.616 38.0394C66.78 38.7036 65.612 39.0437 64.148 39.0357H60.624C56.928 39.0277 50.992 39.0197 46.44 39.0117C46.44 39.0197 46.444 39.0277 46.444 39.0357C46.448 39.0797 46.456 39.1197 46.456 39.1637C46.432 38.9437 46.396 38.7276 46.352 38.5116C46.352 38.5035 46.352 38.4955 46.348 38.4915C46.208 37.8313 45.968 37.2072 45.64 36.639C45.636 36.631 45.632 36.623 45.628 36.615C45.536 36.4549 45.436 36.3029 45.332 36.1548L57.88 23.7471C58.924 22.7188 59.988 22.1386 61.052 22.0226ZM44.748 44.2413C44.704 44.2893 44.66 44.3373 44.612 44.3853C44.588 44.4093 44.56 44.4373 44.532 44.4613C44.608 44.3893 44.68 44.3173 44.748 44.2413ZM41.012 33.482C41.012 33.482 41.032 33.486 41.04 33.486L41.14 15.8648C41.152 14.4003 41.496 13.236 42.168 12.4037C43.396 10.8833 45.012 9.97899 46.972 9.72292C48.804 9.48284 50.544 8.57057 51.676 7.85036C52.864 7.09013 53.656 6.42993 54.332 5.74572C54.324 6.77403 54.412 7.87036 54.728 9.26678C55.012 10.5392 55.58 12.3517 56.66 13.7761C57.852 15.3526 58.348 17.1371 58.128 19.0857C58.008 20.15 57.42 21.2104 56.384 22.2427L52.204 26.4119C49.784 28.8246 46.54 32.0616 43.908 34.6864C43.776 34.5864 43.644 34.4943 43.504 34.4063C43.492 34.3983 43.48 34.3943 43.468 34.3863C42.916 34.0422 42.308 33.7781 41.66 33.6141C41.648 33.6101 41.632 33.6061 41.62 33.6061C41.372 33.5421 41.116 33.494 40.86 33.462C40.912 33.466 40.96 33.474 41.012 33.482ZM43.28 38.2355V41.4484C43.28 41.7685 43.184 42.0686 43.02 42.3167C43.02 42.3247 43.016 42.3287 43.012 42.3327C42.872 42.5488 42.676 42.7248 42.452 42.8489C42.42 42.8689 42.384 42.8889 42.348 42.9049C42.144 43.0009 41.916 43.0529 41.676 43.0529H38.46C38.212 43.0529 37.98 42.9969 37.768 42.8969C37.732 42.8769 37.7 42.8609 37.664 42.8409C37.444 42.7168 37.256 42.5408 37.12 42.3247C37.116 42.3247 37.116 42.3207 37.116 42.3167C36.952 42.0686 36.856 41.7685 36.856 41.4484V38.2355C36.856 38.0274 36.892 37.8313 36.968 37.6513C36.968 37.6513 36.968 37.6433 36.972 37.6353C37.104 37.3032 37.348 37.0191 37.66 36.8431C37.664 36.8391 37.668 36.8391 37.672 36.835C37.904 36.703 38.176 36.627 38.46 36.627H41.676C41.96 36.627 42.232 36.703 42.464 36.835C42.472 36.8391 42.48 36.843 42.484 36.847C42.792 37.0271 43.036 37.3072 43.168 37.6433C43.168 37.6473 43.168 37.6513 43.172 37.6553C43.244 37.8354 43.28 38.0274 43.28 38.2355ZM40.468 33.426C40.336 33.418 40.204 33.414 40.068 33.414C39.932 33.414 39.8 33.418 39.668 33.426C39.932 33.406 40.2 33.406 40.468 33.426ZM23.528 13.6561C24.652 12.1917 25.236 10.3231 25.528 9.0107C25.836 7.63029 25.924 6.60198 25.92 5.64569C26.64 6.37391 27.476 7.08613 28.688 7.85036C29.788 8.54656 31.472 9.43083 33.244 9.6709C35.2 9.94298 36.812 10.8553 38.032 12.3917C38.7 13.228 39.036 14.3923 39.032 15.8568L39.024 20.4341C39.02 24.0512 39.012 29.3368 39.008 33.5021C38.84 33.5301 38.676 33.5661 38.516 33.6061C38.504 33.6061 38.496 33.6061 38.484 33.6101C37.832 33.7741 37.22 34.0422 36.664 34.3863C36.656 34.3903 36.652 34.3983 36.644 34.4023C36.48 34.5064 36.32 34.6144 36.168 34.7344C36.176 34.7264 36.18 34.7224 36.188 34.7144L23.748 22.1266C22.716 21.0823 22.136 20.018 22.024 18.9577C21.816 17.0091 22.324 15.2246 23.528 13.6561ZM35.456 35.3666C35.476 35.3426 35.5 35.3186 35.524 35.2946C35.608 35.2106 35.692 35.1305 35.78 35.0545C35.668 35.1545 35.56 35.2586 35.456 35.3666ZM9.728 33.0259C9.492 31.1934 8.58 29.4568 7.856 28.3245C7.1 27.1321 6.436 26.3439 5.756 25.6677C6.784 25.6757 7.876 25.5877 9.276 25.2716C10.544 24.9835 12.356 24.4153 13.784 23.335C15.356 22.1426 17.144 21.6505 19.092 21.8706C20.152 21.9906 21.216 22.5788 22.248 23.6151L24.972 26.3479C27.532 28.9127 31.624 33.0219 34.78 36.1869C34.688 36.3229 34.596 36.4669 34.512 36.611C34.508 36.619 34.504 36.627 34.5 36.635C34.172 37.2032 33.928 37.8273 33.788 38.4875C33.784 38.4955 33.784 38.5035 33.784 38.5116C33.74 38.7276 33.704 38.9437 33.68 39.1637C33.684 39.1037 33.692 39.0437 33.7 38.9837C33.7 38.9757 33.7 38.9677 33.704 38.9637L15.872 38.8597C14.404 38.8517 13.24 38.5075 12.412 37.8353C10.888 36.607 9.988 34.9865 9.728 33.0259ZM21.852 56.513C20.896 57.3852 19.92 57.8774 18.952 57.9814C17.004 58.1855 15.22 57.6813 13.652 56.4769C12.188 55.3486 10.32 54.7644 9.008 54.4723C7.628 54.1682 6.6 54.0802 5.644 54.0842C6.372 53.36 7.084 52.5278 7.848 51.3154C8.544 50.2151 9.424 48.5306 9.668 46.754C9.94 44.7974 10.852 43.185 12.388 41.9686C13.224 41.3004 14.388 40.9643 15.852 40.9643L20.368 40.9723C24.08 40.9803 29.532 40.9843 33.748 40.9923C33.776 41.1603 33.816 41.3244 33.86 41.4884C33.86 41.4964 33.86 41.5044 33.864 41.5084C34.036 42.1606 34.312 42.7728 34.668 43.325C34.672 43.325 34.676 43.337 34.68 43.341C34.744 43.441 34.812 43.5371 34.88 43.6291C34.88 43.6331 34.884 43.6331 34.884 43.6371L22.12 56.2569C22.032 56.3449 21.944 56.4289 21.852 56.513ZM39.328 46.2259C39.248 46.2179 39.164 46.2059 39.084 46.1939L38.984 63.8111C38.984 64.0392 38.972 64.2593 38.956 64.4713C38.86 65.6317 38.524 66.572 37.96 67.2722C36.728 68.7926 35.112 69.6969 33.152 69.953C31.32 70.1931 29.584 71.1053 28.452 71.8255C27.26 72.5858 26.472 73.246 25.792 73.9302C25.8 72.9019 25.716 71.8055 25.4 70.4091C25.112 69.1367 24.544 67.3242 23.464 65.8998C22.272 64.3233 21.776 62.5388 21.996 60.5902C22.1 59.6899 22.54 58.7896 23.304 57.9054C23.44 57.7453 23.584 57.5893 23.744 57.4332L25.788 55.3886C28.328 52.8559 32.808 48.3905 36.22 44.9855C36.248 45.0055 36.28 45.0295 36.308 45.0495C36.42 45.1335 36.536 45.2096 36.656 45.2856C36.688 45.3056 36.72 45.3256 36.748 45.3456C37.288 45.6697 37.876 45.9178 38.504 46.0738C38.54 46.0858 38.572 46.0938 38.608 46.1018C38.728 46.1298 38.852 46.1538 38.976 46.1739C38.988 46.1739 39.004 46.1739 39.016 46.1819C39.12 46.1979 39.224 46.2139 39.328 46.2259C39.572 46.2499 39.816 46.2659 40.064 46.2659C39.82 46.2659 39.572 46.2539 39.328 46.2259ZM56.464 66.3399C55.336 67.8043 54.752 69.6769 54.464 70.9893C54.156 72.3697 54.068 73.398 54.072 74.3543C53.348 73.6261 52.516 72.9139 51.304 72.1496C50.72 71.7775 49.972 71.3574 49.136 71.0093C48.392 70.6972 47.58 70.4411 46.744 70.3251C44.788 70.057 43.18 69.1407 41.956 67.6123C41.348 66.844 41.012 65.7997 40.964 64.5033C40.964 64.5033 40.964 64.4953 40.968 64.4953C40.96 64.3793 40.96 64.2633 40.96 64.1432V58.8497C40.972 55.1485 40.98 50.131 40.988 46.2019C40.932 46.2099 40.872 46.2179 40.816 46.2219C40.908 46.2099 41 46.1979 41.092 46.1859C41.232 46.1618 41.368 46.1378 41.504 46.1058C41.54 46.0978 41.576 46.0898 41.612 46.0818C42.24 45.9258 42.832 45.6777 43.372 45.3536C43.4 45.3376 43.432 45.3176 43.46 45.2976C43.536 45.2536 43.608 45.2056 43.68 45.1575L56.244 57.8734C57.276 58.9137 57.852 59.982 57.968 61.0463C58.172 62.9909 57.668 64.7754 56.464 66.3399ZM70.728 54.7324C69.456 55.0205 67.644 55.5887 66.216 56.669C64.644 57.8614 62.856 58.3575 60.912 58.1334C59.848 58.0134 58.784 57.4292 57.752 56.3889L55.928 54.5604C53.504 52.1276 48.72 47.3262 45.16 43.7571C45.264 43.6251 45.36 43.489 45.452 43.349C45.456 43.341 45.46 43.333 45.468 43.325C45.82 42.7768 46.096 42.1687 46.272 41.5165C46.272 41.5085 46.276 41.5005 46.276 41.4884C46.316 41.3404 46.352 41.1924 46.38 41.0403L64.128 41.1443C65.596 41.1523 66.76 41.4964 67.588 42.1686C69.112 43.401 70.012 45.0175 70.272 46.9781C70.512 48.8106 71.42 50.5472 72.144 51.6795C72.9 52.8719 73.564 53.6601 74.244 54.3363C73.216 54.3323 72.124 54.4163 70.728 54.7324Z" fill="#95473C"/>
</svg>
